<svg xmlns="http://www.w3.org/2000/svg" xmlns:xlink="http://www.w3.org/1999/xlink" contentStyleType="text/css" data-diagram-type="DESCRIPTION" height="338px" preserveAspectRatio="none" style="width:430px;height:338px;background:#FFFFFF;" version="1.1" viewBox="0 0 430 338" width="430px" zoomAndPan="magnify"><defs/><g><!--cluster Transicao arquitetural--><g class="cluster" data-entity="Transicao arquitetural" data-source-line="21" data-uid="ent0009" id="cluster_Transicao arquitetural"><rect fill="none" height="88" rx="2.5" ry="2.5" style="stroke:#444444;stroke-width:1;" width="374" x="50" y="244.5"/><text fill="#000000" font-family="sans-serif" font-size="14" font-weight="bold" lengthAdjust="spacing" textLength="176.374" x="148.813" y="259.4951">Transicao arquitetural</text></g><!--entity UC_ConfigurarPipeline--><g class="entity" data-entity="UC_ConfigurarPipeline" data-source-line="22" data-uid="ent0010" id="entity_UC_ConfigurarPipeline"><ellipse cx="328.7818" cy="297.7564" fill="#FFFFFF" rx="79.2818" ry="18.2564" style="stroke:#444444;stroke-width:0.5;"/><text fill="#000000" font-family="sans-serif" font-size="14" lengthAdjust="spacing" textLength="128.9805" x="264.2916" y="302.4048">ConfigurarPipeline</text></g><!--entity UC_ExecutarPipeline--><g class="entity" data-entity="UC_ExecutarPipeline" data-source-line="23" data-uid="ent0011" id="entity_UC_ExecutarPipeline"><ellipse cx="139.8864" cy="297.7773" fill="#FFFFFF" rx="74.3864" ry="17.2773" style="stroke:#444444;stroke-width:0.5;"/><text fill="#000000" font-family="sans-serif" font-size="14" lengthAdjust="spacing" textLength="117.2363" x="81.2682" y="302.4257">ExecutarPipeline</text></g><!--entity Usuario--><g class="entity" data-entity="Usuario" data-source-line="14" data-uid="ent0002" id="entity_Usuario"><ellipse cx="150" cy="22" fill="#F1F1F1" rx="16" ry="16" style="stroke:#181818;stroke-width:0.5;"/><path d="M150,42 C154,42 157,42 161,38 C169,38 177,46 177,54 L177,58 C177,62 173,66 169,66 L131,66 C127,66 123,62 123,58 L123,54 C123,46 131,38 139,38 C143,42 146,42 150,42" fill="#F1F1F1" style="stroke:#181818;stroke-width:0.5;"/><text fill="#000000" font-family="sans-serif" font-size="14" lengthAdjust="spacing" textLength="51.8301" x="124.085" y="79.4951">usuario</text></g><!--entity UsuarioOperador--><g class="entity" data-entity="UsuarioOperador" data-source-line="15" data-uid="ent0003" id="entity_UsuarioOperador"><ellipse cx="65.9443" cy="159" fill="#F1F1F1" rx="16" ry="16" style="stroke:#181818;stroke-width:0.5;"/><path d="M65.9443,179 C69.9443,179 72.9443,179 76.9443,175 C84.9443,175 92.9443,183 92.9443,191 L92.9443,195 C92.9443,199 88.9443,203 84.9443,203 L46.9443,203 C42.9443,203 38.9443,199 38.9443,195 L38.9443,191 C38.9443,183 46.9443,175 54.9443,175 C58.9443,179 61.9443,179 65.9443,179" fill="#F1F1F1" style="stroke:#181818;stroke-width:0.5;"/><text fill="#000000" font-family="sans-serif" font-size="14" lengthAdjust="spacing" textLength="119.8887" x="6" y="216.4951">usuario operador</text></g><!--entity UsuarioConfigurador--><g class="entity" data-entity="UsuarioConfigurador" data-source-line="16" data-uid="ent0004" id="entity_UsuarioConfigurador"><ellipse cx="233.7686" cy="159" fill="#F1F1F1" rx="16" ry="16" style="stroke:#181818;stroke-width:0.5;"/><path d="M233.7686,179 C237.7686,179 240.7686,179 244.7686,175 C252.7686,175 260.7686,183 260.7686,191 L260.7686,195 C260.7686,199 256.7686,203 252.7686,203 L214.7686,203 C210.7686,203 206.7686,199 206.7686,195 L206.7686,191 C206.7686,183 214.7686,175 222.7686,175 C226.7686,179 229.7686,179 233.7686,179" fill="#F1F1F1" style="stroke:#181818;stroke-width:0.5;"/><text fill="#000000" font-family="sans-serif" font-size="14" lengthAdjust="spacing" textLength="145.5371" x="161" y="216.4951">usuario configurador</text></g><!--reverse link Usuario to UsuarioOperador--><g class="link" data-entity-1="Usuario" data-entity-2="UsuarioOperador" data-source-line="18" data-uid="lnk6" id="link_Usuario_UsuarioOperador"><path d="M117.0896,97.8924 C105.5396,116.4524 101.14,123.52 89.56,142.13" fill="none" id="Usuario-backto-UsuarioOperador" style="stroke:#666666;stroke-width:1;"/><polygon fill="none" points="126.6,82.61,111.9955,94.7223,122.1838,101.0626,126.6,82.61" style="stroke:#666666;stroke-width:1;"/></g><!--reverse link Usuario to UsuarioConfigurador--><g class="link" data-entity-1="Usuario" data-entity-2="UsuarioConfigurador" data-source-line="19" data-uid="lnk8" id="link_Usuario_UsuarioConfigurador"><path d="M182.9104,97.8924 C194.4604,116.4524 198.86,123.52 210.44,142.13" fill="none" id="Usuario-backto-UsuarioConfigurador" style="stroke:#666666;stroke-width:1;"/><polygon fill="none" points="173.4,82.61,177.8162,101.0626,188.0045,94.7223,173.4,82.61" style="stroke:#666666;stroke-width:1;"/></g><!--link UsuarioConfigurador to UC_ConfigurarPipeline--><g class="link" data-entity-1="UsuarioConfigurador" data-entity-2="UC_ConfigurarPipeline" data-source-line="26" data-uid="lnk12" id="link_UsuarioConfigurador_UC_ConfigurarPipeline"><path d="M265.11,219.66 C281.77,239.83 297.6896,259.0935 310.7696,274.9335" fill="none" id="UsuarioConfigurador-to-UC_ConfigurarPipeline" style="stroke:#666666;stroke-width:1;"/><polygon fill="#666666" points="314.59,279.56,311.9438,270.0733,311.4063,275.7046,305.7751,275.1671,314.59,279.56" style="stroke:#666666;stroke-width:1;"/></g><!--link UsuarioConfigurador to UC_ExecutarPipeline--><g class="link" data-entity-1="UsuarioConfigurador" data-entity-2="UC_ExecutarPipeline" data-source-line="27" data-uid="lnk13" id="link_UsuarioConfigurador_UC_ExecutarPipeline"><path d="M203.22,219.66 C186.3,240.36 169.9781,260.3252 157.0581,276.1252" fill="none" id="UsuarioConfigurador-to-UC_ExecutarPipeline" style="stroke:#666666;stroke-width:1;"/><polygon fill="#666666" points="153.26,280.77,162.0537,276.3349,156.4251,276.8993,155.8607,271.2707,153.26,280.77" style="stroke:#666666;stroke-width:1;"/></g><!--SRC=[VL0xJyGm3DxpAwmoTqEC9q7531B7Z4pgwqNNni59L13SVwUFeqHf8LFqlVpPWHq4XbSEWJkeZP0EXgto9sCT2dRWZrXpRsm31smz9On3VSA6di97Ip0QqJPjAa0TM6OQU_BSfMJqfD4JV2g0ko6f4OwshhXbWVve0equIqqoOrVNqnlGMn7kB-3DzDGv2LwQpD4R4MUbfcfGH1zH31U07fxdVqO1EvBX0f9g7YvOhjLi3wQ9AtsLu4fb8L16LtxjblaRdboYVdSizeBM6uqCA6znk5iOF6qnBVzpus89aqVZg3MMvdhLovf9VVVlf6DOkt9yFEbcxtBtnv1_r7duDm00]--></g></svg>
