<svg xmlns="http://www.w3.org/2000/svg" xmlns:xlink="http://www.w3.org/1999/xlink" contentStyleType="text/css" data-diagram-type="DESCRIPTION" height="681px" preserveAspectRatio="none" style="width:1735px;height:681px;background:#FFFFFF;" version="1.1" viewBox="0 0 1735 681" width="1735px" zoomAndPan="magnify"><title>Diagrama de Componentes</title><defs/><g><g class="title" data-source-line="1"><text fill="#000000" font-family="sans-serif" font-size="14" font-weight="bold" lengthAdjust="spacing" textLength="213.6094" x="754.0607" y="22.9951">Diagrama de Componentes</text></g><!--cluster Interfaces--><g class="cluster" data-entity="Interfaces" data-source-line="6" data-uid="ent0002" id="cluster_Interfaces"><path d="M297.26,43.2969 L378.1926,43.2969 A3.75,3.75 0 0 1 380.6926,45.7969 L387.6926,65.5938 L453.26,65.5938 A2.5,2.5 0 0 1 455.76,68.0938 L455.76,127.7969 A2.5,2.5 0 0 1 453.26,130.2969 L297.26,130.2969 A2.5,2.5 0 0 1 294.76,127.7969 L294.76,45.7969 A2.5,2.5 0 0 1 297.26,43.2969" fill="none" style="stroke:#000000;stroke-width:1.5;"/><line style="stroke:#000000;stroke-width:1.5;" x1="294.76" x2="387.6926" y1="65.5938" y2="65.5938"/><text fill="#000000" font-family="sans-serif" font-size="14" font-weight="bold" lengthAdjust="spacing" textLength="79.9326" x="298.76" y="58.292">Interfaces</text></g><!--cluster Aplicacao--><g class="cluster" data-entity="Aplicacao" data-source-line="11" data-uid="ent0005" id="cluster_Aplicacao"><path d="M253.26,170.2969 L329.8245,170.2969 A3.75,3.75 0 0 1 332.3245,172.7969 L339.3245,192.5938 L448.26,192.5938 A2.5,2.5 0 0 1 450.76,195.0938 L450.76,352.7969 A2.5,2.5 0 0 1 448.26,355.2969 L253.26,355.2969 A2.5,2.5 0 0 1 250.76,352.7969 L250.76,172.7969 A2.5,2.5 0 0 1 253.26,170.2969" fill="none" style="stroke:#000000;stroke-width:1.5;"/><line style="stroke:#000000;stroke-width:1.5;" x1="250.76" x2="339.3245" y1="192.5938" y2="192.5938"/><text fill="#000000" font-family="sans-serif" font-size="14" font-weight="bold" lengthAdjust="spacing" textLength="75.5645" x="254.76" y="185.292">Aplicacao</text></g><!--cluster Dominio--><g class="cluster" data-entity="Dominio" data-source-line="16" data-uid="ent0008" id="cluster_Dominio"><path d="M707.26,491.2969 L773.2698,491.2969 A3.75,3.75 0 0 1 775.7698,493.7969 L782.7698,513.5938 L1167.26,513.5938 A2.5,2.5 0 0 1 1169.76,516.0938 L1169.76,575.7969 A2.5,2.5 0 0 1 1167.26,578.2969 L707.26,578.2969 A2.5,2.5 0 0 1 704.76,575.7969 L704.76,493.7969 A2.5,2.5 0 0 1 707.26,491.2969" fill="none" style="stroke:#000000;stroke-width:1.5;"/><line style="stroke:#000000;stroke-width:1.5;" x1="704.76" x2="782.7698" y1="513.5938" y2="513.5938"/><text fill="#000000" font-family="sans-serif" font-size="14" font-weight="bold" lengthAdjust="spacing" textLength="65.0098" x="708.76" y="506.292">Dominio</text></g><!--cluster Infraestrutura Atual--><g class="cluster" data-entity="Infraestrutura Atual" data-source-line="21" data-uid="ent0011" id="cluster_Infraestrutura Atual"><path d="M23.26,395.2969 L182.8948,395.2969 A3.75,3.75 0 0 1 185.3948,397.7969 L192.3948,417.5938 L678.26,417.5938 A2.5,2.5 0 0 1 680.76,420.0938 L680.76,671.7969 A2.5,2.5 0 0 1 678.26,674.2969 L23.26,674.2969 A2.5,2.5 0 0 1 20.76,671.7969 L20.76,397.7969 A2.5,2.5 0 0 1 23.26,395.2969" fill="none" style="stroke:#000000;stroke-width:1.5;"/><line style="stroke:#000000;stroke-width:1.5;" x1="20.76" x2="192.3948" y1="417.5938" y2="417.5938"/><text fill="#000000" font-family="sans-serif" font-size="14" font-weight="bold" lengthAdjust="spacing" textLength="158.6348" x="24.76" y="410.292">Infraestrutura Atual</text></g><!--cluster Engine Futura--><g class="cluster" data-entity="Engine Futura" data-source-line="29" data-uid="ent0017" id="cluster_Engine Futura"><path d="M833.26,162.2969 L945.4875,162.2969 A3.75,3.75 0 0 1 947.9875,164.7969 L954.9875,184.5938 L1450.26,184.5938 A2.5,2.5 0 0 1 1452.76,187.0938 L1452.76,360.7969 A2.5,2.5 0 0 1 1450.26,363.2969 L833.26,363.2969 A2.5,2.5 0 0 1 830.76,360.7969 L830.76,164.7969 A2.5,2.5 0 0 1 833.26,162.2969" fill="none" style="stroke:#000000;stroke-width:1.5;"/><line style="stroke:#000000;stroke-width:1.5;" x1="830.76" x2="954.9875" y1="184.5938" y2="184.5938"/><text fill="#000000" font-family="sans-serif" font-size="14" font-weight="bold" lengthAdjust="spacing" textLength="111.2275" x="834.76" y="177.292">Engine Futura</text></g><!--entity CLI--><g class="entity" data-entity="CLI" data-source-line="7" data-uid="ent0003" id="entity_CLI"><rect fill="#F1F1F1" height="36.2969" rx="2.5" ry="2.5" style="stroke:#181818;stroke-width:0.5;" width="41.7041" x="397.76" y="78.2969"/><text fill="#000000" font-family="sans-serif" font-size="14" lengthAdjust="spacing" textLength="21.7041" x="407.76" y="101.292">CLI</text></g><!--entity Web--><g class="entity" data-entity="Web" data-source-line="8" data-uid="ent0004" id="entity_Web"><rect fill="#F1F1F1" height="36.2969" rx="2.5" ry="2.5" style="stroke:#181818;stroke-width:0.5;" width="51.3428" x="311.26" y="78.2969"/><text fill="#000000" font-family="sans-serif" font-size="14" lengthAdjust="spacing" textLength="31.3428" x="321.26" y="101.292">Web</text></g><!--entity Casos de Uso--><g class="entity" data-entity="Casos de Uso" data-source-line="12" data-uid="ent0006" id="entity_Casos de Uso"><rect fill="#F1F1F1" height="36.2969" rx="2.5" ry="2.5" style="stroke:#181818;stroke-width:0.5;" width="114.0146" x="320.76" y="205.2969"/><text fill="#000000" font-family="sans-serif" font-size="14" lengthAdjust="spacing" textLength="94.0146" x="330.76" y="228.292">Casos de Uso</text></g><!--entity Orquestracao Legacy--><g class="entity" data-entity="Orquestracao Legacy" data-source-line="13" data-uid="ent0007" id="entity_Orquestracao Legacy"><rect fill="#F1F1F1" height="36.2969" rx="2.5" ry="2.5" style="stroke:#181818;stroke-width:0.5;" width="169.4199" x="266.26" y="303.2969"/><text fill="#000000" font-family="sans-serif" font-size="14" lengthAdjust="spacing" textLength="149.4199" x="276.26" y="326.292">Orquestracao Legacy</text></g><!--entity Entidades e Value Objects--><g class="entity" data-entity="Entidades e Value Objects" data-source-line="17" data-uid="ent0009" id="entity_Entidades e Value Objects"><rect fill="#F1F1F1" height="36.2969" rx="2.5" ry="2.5" style="stroke:#181818;stroke-width:0.5;" width="203.7432" x="949.76" y="526.2969"/><text fill="#000000" font-family="sans-serif" font-size="14" lengthAdjust="spacing" textLength="183.7432" x="959.76" y="549.292">Entidades e Value Objects</text></g><!--entity Contratos de Repositorio--><g class="entity" data-entity="Contratos de Repositorio" data-source-line="18" data-uid="ent0010" id="entity_Contratos de Repositorio"><rect fill="#F1F1F1" height="36.2969" rx="2.5" ry="2.5" style="stroke:#181818;stroke-width:0.5;" width="194.0293" x="720.76" y="526.2969"/><text fill="#000000" font-family="sans-serif" font-size="14" lengthAdjust="spacing" textLength="174.0293" x="730.76" y="549.292">Contratos de Repositorio</text></g><!--entity SQLiteDocumentoRepository--><g class="entity" data-entity="SQLiteDocumentoRepository" data-source-line="22" data-uid="ent0012" id="entity_SQLiteDocumentoRepository"><rect fill="#F1F1F1" height="36.2969" rx="2.5" ry="2.5" style="stroke:#181818;stroke-width:0.5;" width="221.8652" x="442.76" y="430.2969"/><text fill="#000000" font-family="sans-serif" font-size="14" lengthAdjust="spacing" textLength="201.8652" x="452.76" y="453.292">SQLiteDocumentoRepository</text></g><!--entity SQLiteTraducaoRepository--><g class="entity" data-entity="SQLiteTraducaoRepository" data-source-line="23" data-uid="ent0013" id="entity_SQLiteTraducaoRepository"><rect fill="#F1F1F1" height="36.2969" rx="2.5" ry="2.5" style="stroke:#181818;stroke-width:0.5;" width="206.2588" x="201.76" y="430.2969"/><text fill="#000000" font-family="sans-serif" font-size="14" lengthAdjust="spacing" textLength="186.2588" x="211.76" y="453.292">SQLiteTraducaoRepository</text></g><!--entity ServiceRegistry--><g class="entity" data-entity="ServiceRegistry" data-source-line="24" data-uid="ent0014" id="entity_ServiceRegistry"><rect fill="#F1F1F1" height="36.2969" rx="2.5" ry="2.5" style="stroke:#181818;stroke-width:0.5;" width="129.6826" x="36.76" y="430.2969"/><text fill="#000000" font-family="sans-serif" font-size="14" lengthAdjust="spacing" textLength="109.6826" x="46.76" y="453.292">ServiceRegistry</text></g><!--entity Factories de Servico--><g class="entity" data-entity="Factories de Servico" data-source-line="25" data-uid="ent0015" id="entity_Factories de Servico"><rect fill="#F1F1F1" height="36.2969" rx="2.5" ry="2.5" style="stroke:#181818;stroke-width:0.5;" width="162.0303" x="38.76" y="526.2969"/><text fill="#000000" font-family="sans-serif" font-size="14" lengthAdjust="spacing" textLength="142.0303" x="48.76" y="549.292">Factories de Servico</text></g><!--entity Integracoes Externas--><g class="entity" data-entity="Integracoes Externas" data-source-line="26" data-uid="ent0016" id="entity_Integracoes Externas"><rect fill="#F1F1F1" height="36.2969" rx="2.5" ry="2.5" style="stroke:#181818;stroke-width:0.5;" width="168.6816" x="36.26" y="622.2969"/><text fill="#000000" font-family="sans-serif" font-size="14" lengthAdjust="spacing" textLength="148.6816" x="46.26" y="645.292">Integracoes Externas</text></g><!--entity Catalogo e Configuracao de Pipeline--><g class="entity" data-entity="Catalogo e Configuracao de Pipeline" data-source-line="30" data-uid="ent0018" id="entity_Catalogo e Configuracao de Pipeline"><rect fill="#F1F1F1" height="36.2969" rx="2.5" ry="2.5" style="stroke:#181818;stroke-width:0.5;" width="274.3105" x="1135.76" y="205.2969"/><text fill="#000000" font-family="sans-serif" font-size="14" lengthAdjust="spacing" textLength="254.3105" x="1145.76" y="228.292">Catalogo e Configuracao de Pipeline</text></g><!--entity Execucao de Pipeline--><g class="entity" data-entity="Execucao de Pipeline" data-source-line="31" data-uid="ent0019" id="entity_Execucao de Pipeline"><rect fill="#F1F1F1" height="36.2969" rx="2.5" ry="2.5" style="stroke:#181818;stroke-width:0.5;" width="168.6543" x="893.26" y="303.2969"/><text fill="#000000" font-family="sans-serif" font-size="14" lengthAdjust="spacing" textLength="148.6543" x="903.26" y="326.292">Execucao de Pipeline</text></g><!--entity Resultados Derivados e Revisao--><g class="entity" data-entity="Resultados Derivados e Revisao" data-source-line="32" data-uid="ent0020" id="entity_Resultados Derivados e Revisao"><rect fill="#F1F1F1" height="36.2969" rx="2.5" ry="2.5" style="stroke:#181818;stroke-width:0.5;" width="244.7793" x="855.26" y="205.2969"/><text fill="#000000" font-family="sans-serif" font-size="14" lengthAdjust="spacing" textLength="224.7793" x="865.26" y="228.292">Resultados Derivados e Revisao</text></g><g class="entity" data-entity="GMN37" data-source-line="55" data-uid="ent0038" id="entity_GMN37"><path d="M1477.26,301.2969 L1477.26,341.5625 L1728.7307,341.5625 L1728.7307,311.2969 L1718.7307,301.2969 L1477.26,301.2969" fill="#FEFFDD" style="stroke:#181818;stroke-width:0.5;"/><path d="M1718.7307,301.2969 L1718.7307,311.2969 L1728.7307,311.2969 L1718.7307,301.2969" fill="#FEFFDD" style="stroke:#181818;stroke-width:1;"/><text fill="#000000" font-family="sans-serif" font-size="13" lengthAdjust="spacing" textLength="230.4707" x="1483.26" y="318.3638">Blocos futuros exigidos pela frente,</text><text fill="#000000" font-family="sans-serif" font-size="13" lengthAdjust="spacing" textLength="201.0747" x="1483.26" y="333.4966">mas ainda nao implementados</text></g><!--link CLI to Casos de Uso--><g class="link" data-entity-1="CLI" data-entity-2="Casos de Uso" data-source-line="35" data-uid="lnk21" id="link_CLI_Casos de Uso"><path d="M413.15,114.4169 C405.34,138.2169 393.1494,175.3755 385.3094,199.2855" fill="none" id="CLI-to-Casos de Uso" style="stroke:#181818;stroke-width:1;"/><polygon fill="#181818" points="383.44,204.9869,390.0451,197.6812,384.9979,200.2358,382.4433,195.1886,383.44,204.9869" style="stroke:#181818;stroke-width:1;"/></g><!--link Web to Casos de Uso--><g class="link" data-entity-1="Web" data-entity-2="Casos de Uso" data-source-line="36" data-uid="lnk22" id="link_Web_Casos de Uso"><path d="M342.37,114.4169 C350.18,138.2169 362.3706,175.3755 370.2106,199.2855" fill="none" id="Web-to-Casos de Uso" style="stroke:#181818;stroke-width:1;"/><polygon fill="#181818" points="372.08,204.9869,373.0767,195.1886,370.5221,200.2358,365.4749,197.6812,372.08,204.9869" style="stroke:#181818;stroke-width:1;"/></g><!--link Casos de Uso to Orquestracao Legacy--><g class="link" data-entity-1="Casos de Uso" data-entity-2="Orquestracao Legacy" data-source-line="37" data-uid="lnk23" id="link_Casos de Uso_Orquestracao Legacy"><path d="M372.93,241.4569 C368.02,258.9369 362.0616,280.0902 357.1716,297.5102" fill="none" id="Casos de Uso-to-Orquestracao Legacy" style="stroke:#181818;stroke-width:1;"/><polygon fill="#181818" points="355.55,303.2869,361.8335,295.7029,356.9013,298.4729,354.1312,293.5407,355.55,303.2869" style="stroke:#181818;stroke-width:1;"/></g><!--link Casos de Uso to Entidades e Value Objects--><g class="link" data-entity-1="Casos de Uso" data-entity-2="Entidades e Value Objects" data-source-line="38" data-uid="lnk24" id="link_Casos de Uso_Entidades e Value Objects"><path d="M434.99,237.2369 C488.19,250.2169 569.05,272.4269 635.76,301.2969 C792.57,369.1669 959.3629,479.6319 1022.1229,522.7019" fill="none" id="Casos de Uso-to-Entidades e Value Objects" style="stroke:#181818;stroke-width:1;"/><polygon fill="#181818" points="1027.07,526.0969,1021.9127,517.7063,1022.9474,523.2677,1017.386,524.3024,1027.07,526.0969" style="stroke:#181818;stroke-width:1;"/></g><!--link Casos de Uso to Contratos de Repositorio--><g class="link" data-entity-1="Casos de Uso" data-entity-2="Contratos de Repositorio" data-source-line="39" data-uid="lnk25" id="link_Casos de Uso_Contratos de Repositorio"><path d="M420.28,241.3869 C481.64,267.2769 596.84,320.5569 680.76,387.2969 C734.36,429.9269 780.378,490.3206 802.348,521.1506" fill="none" id="Casos de Uso-to-Contratos de Repositorio" style="stroke:#181818;stroke-width:1;"/><polygon fill="#181818" points="805.83,526.0369,803.8645,516.3861,802.9283,521.965,797.3495,521.0288,805.83,526.0369" style="stroke:#181818;stroke-width:1;"/></g><!--link Orquestracao Legacy to ServiceRegistry--><g class="link" data-entity-1="Orquestracao Legacy" data-entity-2="ServiceRegistry" data-source-line="40" data-uid="lnk26" id="link_Orquestracao Legacy_ServiceRegistry"><path d="M296.52,339.3769 C263.05,350.8869 219.77,367.5569 183.76,387.2969 C161.33,399.5969 142.6621,413.43 126.6521,426.4" fill="none" id="Orquestracao Legacy-to-ServiceRegistry" style="stroke:#181818;stroke-width:1;"/><polygon fill="#181818" points="121.99,430.1769,131.5011,427.6197,125.8751,427.0295,126.4653,421.4035,121.99,430.1769" style="stroke:#181818;stroke-width:1;"/></g><!--link Orquestracao Legacy to Integracoes Externas--><g class="link" data-entity-1="Orquestracao Legacy" data-entity-2="Integracoes Externas" data-source-line="41" data-uid="lnk27" id="link_Orquestracao Legacy_Integracoes Externas"><path d="M266.01,326.9469 C178.18,333.7469 49.51,349.9469 18.76,387.2969 C6.9,401.6969 6,562.2269 20.76,586.2969 C30.77,602.6269 42.2469,611.6399 59.3169,619.7199" fill="none" id="Orquestracao Legacy-to-Integracoes Externas" style="stroke:#181818;stroke-width:1;"/><polygon fill="#181818" points="64.74,622.2869,58.3166,614.8209,60.2207,620.1477,54.8939,622.0518,64.74,622.2869" style="stroke:#181818;stroke-width:1;"/></g><!--link SQLiteDocumentoRepository to Contratos de Repositorio--><g class="link" data-entity-1="SQLiteDocumentoRepository" data-entity-2="Contratos de Repositorio" data-source-line="43" data-uid="lnk28" id="link_SQLiteDocumentoRepository_Contratos de Repositorio"><path d="M624.87,466.3069 C643.25,471.2469 662.88,477.0269 680.76,483.2969 C716.29,495.7569 739.2446,505.6585 766.5946,518.5785" fill="none" id="SQLiteDocumentoRepository-to-Contratos de Repositorio" style="stroke:#181818;stroke-width:1;stroke-dasharray:7,7;"/><polygon fill="none" points="782.87,526.2669,769.1574,513.1533,764.0318,524.0036,782.87,526.2669" style="stroke:#181818;stroke-width:1;"/></g><!--link SQLiteTraducaoRepository to Contratos de Repositorio--><g class="link" data-entity-1="SQLiteTraducaoRepository" data-entity-2="Contratos de Repositorio" data-source-line="44" data-uid="lnk29" id="link_SQLiteTraducaoRepository_Contratos de Repositorio"><path d="M408,464.3169 C414.01,465.0269 419.96,465.6969 425.76,466.2969 C538.74,477.9869 570.42,456.3369 680.76,483.2969 C719.1,492.6669 744.2748,503.6861 771.3448,517.9061" fill="none" id="SQLiteTraducaoRepository-to-Contratos de Repositorio" style="stroke:#181818;stroke-width:1;stroke-dasharray:7,7;"/><polygon fill="none" points="787.28,526.2769,774.1351,512.5943,768.5546,523.2178,787.28,526.2769" style="stroke:#181818;stroke-width:1;"/></g><!--link Factories de Servico to Integracoes Externas--><g class="link" data-entity-1="Factories de Servico" data-entity-2="Integracoes Externas" data-source-line="45" data-uid="lnk30" id="link_Factories de Servico_Integracoes Externas"><path d="M119.94,562.5369 C120.12,579.4969 120.3362,599.2472 120.5162,616.1672" fill="none" id="Factories de Servico-to-Integracoes Externas" style="stroke:#181818;stroke-width:1;"/><polygon fill="#181818" points="120.58,622.1669,124.484,613.1248,120.5268,617.1672,116.4845,613.2099,120.58,622.1669" style="stroke:#181818;stroke-width:1;"/></g><!--link ServiceRegistry to Factories de Servico--><g class="link" data-entity-1="ServiceRegistry" data-entity-2="Factories de Servico" data-source-line="46" data-uid="lnk31" id="link_ServiceRegistry_Factories de Servico"><path d="M105.06,466.5369 C108.31,483.4969 112.1116,503.3539 115.3516,520.2739" fill="none" id="ServiceRegistry-to-Factories de Servico" style="stroke:#181818;stroke-width:1;"/><polygon fill="#181818" points="116.48,526.1669,118.716,516.5752,115.5396,521.2561,110.8587,518.0798,116.48,526.1669" style="stroke:#181818;stroke-width:1;"/></g><!--link Execucao de Pipeline to Entidades e Value Objects--><g class="link" data-entity-1="Execucao de Pipeline" data-entity-2="Entidades e Value Objects" data-source-line="48" data-uid="lnk32" id="link_Execucao de Pipeline_Entidades e Value Objects"><path d="M983.57,339.6369 C997.4,380.9469 1030.2644,479.1175 1044.0744,520.3475" fill="none" id="Execucao de Pipeline-to-Entidades e Value Objects" style="stroke:#181818;stroke-width:1;"/><polygon fill="#181818" points="1045.98,526.0369,1046.9144,516.2324,1044.392,521.2958,1039.3286,518.7733,1045.98,526.0369" style="stroke:#181818;stroke-width:1;"/></g><!--link Execucao de Pipeline to Contratos de Repositorio--><g class="link" data-entity-1="Execucao de Pipeline" data-entity-2="Contratos de Repositorio" data-source-line="49" data-uid="lnk33" id="link_Execucao de Pipeline_Contratos de Repositorio"><path d="M965.21,339.6369 C935.3,380.9469 863.6286,479.9469 833.7786,521.1769" fill="none" id="Execucao de Pipeline-to-Contratos de Repositorio" style="stroke:#181818;stroke-width:1;"/><polygon fill="#181818" points="830.26,526.0369,838.7779,521.0926,833.1921,521.9869,832.2979,516.4012,830.26,526.0369" style="stroke:#181818;stroke-width:1;"/></g><!--link Execucao de Pipeline to ServiceRegistry--><g class="link" data-entity-1="Execucao de Pipeline" data-entity-2="ServiceRegistry" data-source-line="50" data-uid="lnk34" id="link_Execucao de Pipeline_ServiceRegistry"><path d="M893.05,333.5169 C789.08,346.8069 607.29,368.5069 450.76,379.2969 C421.15,381.3369 211.83,377.6569 183.76,387.2969 C158.23,396.0669 138.3109,411.6871 122.8809,426.1271" fill="none" id="Execucao de Pipeline-to-ServiceRegistry" style="stroke:#181818;stroke-width:1;"/><polygon fill="#181818" points="118.5,430.2269,127.8045,426.9978,122.1507,426.8104,122.3381,421.1566,118.5,430.2269" style="stroke:#181818;stroke-width:1;"/></g><!--link Catalogo e Configuracao de Pipeline to Execucao de Pipeline--><g class="link" data-entity-1="Catalogo e Configuracao de Pipeline" data-entity-2="Execucao de Pipeline" data-source-line="51" data-uid="lnk35" id="link_Catalogo e Configuracao de Pipeline_Execucao de Pipeline"><path d="M1220.36,241.3469 C1166.72,258.8069 1089.5255,283.9301 1035.8755,301.3901" fill="none" id="Catalogo e Configuracao de Pipeline-to-Execucao de Pipeline" style="stroke:#181818;stroke-width:1;"/><polygon fill="#181818" points="1030.17,303.2469,1039.9661,304.2653,1034.9246,301.6995,1037.4903,296.658,1030.17,303.2469" style="stroke:#181818;stroke-width:1;"/></g><!--link Resultados Derivados e Revisao to Execucao de Pipeline--><g class="link" data-entity-1="Resultados Derivados e Revisao" data-entity-2="Execucao de Pipeline" data-source-line="52" data-uid="lnk36" id="link_Resultados Derivados e Revisao_Execucao de Pipeline"><path d="M977.76,241.4569 C977.76,258.9369 977.76,279.8669 977.76,297.2869" fill="none" id="Resultados Derivados e Revisao-to-Execucao de Pipeline" style="stroke:#181818;stroke-width:1;"/><polygon fill="#181818" points="977.76,303.2869,981.76,294.2869,977.76,298.2869,973.76,294.2869,977.76,303.2869" style="stroke:#181818;stroke-width:1;"/></g><!--link Engine Futura to GMN37--><g class="link" data-entity-1="Engine Futura" data-entity-2="GMN37" data-source-line="55" data-uid="lnk39" id="link_Engine Futura_GMN37"><path d="M1452.9893,229.2979 C1453.092,229.3603 1453.1955,229.4231 1453.2999,229.4866 C1453.5086,229.6134 1453.7207,229.7422 1453.9362,229.8731 C1455.6597,230.9202 1457.5958,232.0964 1459.7181,233.3858 C1468.2075,238.5434 1479.6775,245.5125 1492.45,253.2731 C1517.995,268.7944 1548.75,287.4819 1571.29,301.1769" fill="none" id="Engine Futura-GMN37" style="stroke:#181818;stroke-width:1;stroke-dasharray:7,7;"/></g><!--SRC=[ZLJBRjim4BppAnOvD_c40gdj00OCf77Qvb3uiAPMx2OKLoKfnqRRVoyfnMbiCt9FUkpCx71dfSZH4amPZSS6eIAOIDEA8nSfA1MUsBMOIg3th-_ZBZ4ywOZEM7e32J-macTs1cgqWPHgKJ-X8RYO9pLVewPm0RyKmFV9OhxArmTQhzIVDyZhrh96ZR87Of2GRNqDqZDk_S-EGlGP0miog7U72bDfsF6UFtEHAwme0C4tj1t1xVenUG-zs4HSKef3XoMr4ZYAPpbKdBlQO-xPnSuZNCSExOly_Ts28qr5TqqQZRnAx5R_gbyyLbroUrmals5DIpASf8TtDwXpV-hz383Xr7c0AI4jgJJRfc4w38ScPywm8xZfFRuEBw8L8v1JTJMRRXXR4l_CBTb4wDLdMz9TgR2aqDcOKWqm9S-R_YvFQiC1XodrKSBbvSVZhFfiYuM3nm5HJBK47Ccp17y_u6BBWNIIp0Ys78mQMGouklezxkpTjJbFBIxGcDEJmmxWyYAgygQSJsQ4DdAO4TPfHF-pwoz6Yzj-RjV7kCf995XBZDA0rCSVe_faHIUnEZzcqIqRpkg9Zr3x_A_ze1eCWEmg19VqkMajvTN9DXIv2dAFlm00]--></g></svg>
