<svg xmlns="http://www.w3.org/2000/svg" xmlns:xlink="http://www.w3.org/1999/xlink" contentStyleType="text/css" data-diagram-type="ACTIVITY" height="991px" preserveAspectRatio="none" style="width:635px;height:991px;background:#FFFFFF;" version="1.1" viewBox="0 0 635 991" width="635px" zoomAndPan="magnify"><title>Diagrama de Atividades de Pipelines</title><defs/><g><g class="title" data-source-line="1"><text fill="#000000" font-family="sans-serif" font-size="14" font-weight="bold" lengthAdjust="spacing" textLength="290.3428" x="171.063" y="32.9951">Diagrama de Atividades de Pipelines</text></g><ellipse cx="317.7344" cy="57.2969" fill="#222222" rx="10" ry="10" style="stroke:#222222;stroke-width:1;"/><polygon fill="#F1F1F1" points="240.5115,87.2969,394.9573,87.2969,406.9573,99.2969,394.9573,111.2969,240.5115,111.2969,228.5115,99.2969,240.5115,87.2969" style="stroke:#181818;stroke-width:0.5;"/><text fill="#000000" font-family="sans-serif" font-size="11" lengthAdjust="spacing" textLength="154.4458" x="240.5115" y="103.105">Escolher pipeline existente?</text><text fill="#000000" font-family="sans-serif" font-size="11" lengthAdjust="spacing" textLength="19.5024" x="209.009" y="96.7026">sim</text><text fill="#000000" font-family="sans-serif" font-size="11" lengthAdjust="spacing" textLength="20.4424" x="406.9573" y="96.7026">nao</text><rect fill="#F1F1F1" height="33.9688" rx="12.5" ry="12.5" style="stroke:#181818;stroke-width:0.5;" width="134.3047" x="151.3591" y="121.2969"/><text fill="#000000" font-family="sans-serif" font-size="12" lengthAdjust="spacing" textLength="114.3047" x="161.3591" y="142.4355">Selecionar pipeline</text><rect fill="#F1F1F1" height="33.9688" rx="12.5" ry="12.5" style="stroke:#181818;stroke-width:0.5;" width="184.4785" x="324.718" y="121.2969"/><text fill="#000000" font-family="sans-serif" font-size="12" lengthAdjust="spacing" textLength="164.4785" x="334.718" y="142.4355">Criar ou configurar pipeline</text><polygon fill="#F1F1F1" points="317.7344,161.2656,329.7344,173.2656,317.7344,185.2656,305.7344,173.2656,317.7344,161.2656" style="stroke:#181818;stroke-width:0.5;"/><rect fill="#F1F1F1" height="33.9688" rx="12.5" ry="12.5" style="stroke:#181818;stroke-width:0.5;" width="143.8555" x="245.8066" y="205.2656"/><text fill="#000000" font-family="sans-serif" font-size="12" lengthAdjust="spacing" textLength="123.8555" x="255.8066" y="226.4043">Validar configuracao</text><rect fill="#F1F1F1" height="33.9688" rx="12.5" ry="12.5" style="stroke:#181818;stroke-width:0.5;" width="209.0703" x="213.1992" y="307.6367"/><text fill="#000000" font-family="sans-serif" font-size="12" lengthAdjust="spacing" textLength="189.0703" x="223.1992" y="328.7754">Registrar falha de configuracao</text><ellipse cx="317.7344" cy="381.1211" fill="none" rx="11" ry="11" style="stroke:#222222;stroke-width:1;"/><ellipse cx="317.7344" cy="381.1211" fill="#222222" rx="6" ry="6" style="stroke:#222222;stroke-width:1;"/><polygon fill="#F1F1F1" points="260.0005,259.2344,375.4683,259.2344,387.4683,271.2344,375.4683,283.2344,260.0005,283.2344,248.0005,271.2344,260.0005,259.2344" style="stroke:#181818;stroke-width:0.5;"/><text fill="#000000" font-family="sans-serif" font-size="11" lengthAdjust="spacing" textLength="20.4424" x="321.7344" y="293.4448">nao</text><text fill="#000000" font-family="sans-serif" font-size="11" lengthAdjust="spacing" textLength="115.4678" x="260.0005" y="275.0425">Configuracao valida?</text><text fill="#000000" font-family="sans-serif" font-size="11" lengthAdjust="spacing" textLength="19.5024" x="387.4683" y="268.6401">sim</text><rect fill="#F1F1F1" height="33.9688" rx="12.5" ry="12.5" style="stroke:#181818;stroke-width:0.5;" width="198.8926" x="218.2881" y="434.1211"/><text fill="#000000" font-family="sans-serif" font-size="12" lengthAdjust="spacing" textLength="178.8926" x="228.2881" y="455.2598">Fornecer entrada documental</text><rect fill="#F1F1F1" height="33.9688" rx="12.5" ry="12.5" style="stroke:#181818;stroke-width:0.5;" width="179.4805" x="227.9941" y="488.0898"/><text fill="#000000" font-family="sans-serif" font-size="12" lengthAdjust="spacing" textLength="159.4805" x="237.9941" y="509.2285">Executar steps do pipeline</text><rect fill="#F1F1F1" height="33.9688" rx="12.5" ry="12.5" style="stroke:#181818;stroke-width:0.5;" width="188.3398" x="223.5645" y="590.4609"/><text fill="#000000" font-family="sans-serif" font-size="12" lengthAdjust="spacing" textLength="168.3398" x="233.5645" y="611.5996">Persistir produtos derivados</text><polygon fill="#F1F1F1" points="262.1274,542.0586,373.3413,542.0586,385.3413,554.0586,373.3413,566.0586,262.1274,566.0586,250.1274,554.0586,262.1274,542.0586" style="stroke:#181818;stroke-width:0.5;"/><text fill="#000000" font-family="sans-serif" font-size="11" lengthAdjust="spacing" textLength="19.5024" x="321.7344" y="576.269">sim</text><text fill="#000000" font-family="sans-serif" font-size="11" lengthAdjust="spacing" textLength="111.2139" x="262.1274" y="557.8667">Persistir resultados?</text><text fill="#000000" font-family="sans-serif" font-size="11" lengthAdjust="spacing" textLength="20.4424" x="385.3413" y="551.4644">nao</text><polygon fill="#F1F1F1" points="317.7344,644.4297,329.7344,656.4297,317.7344,668.4297,305.7344,656.4297,317.7344,644.4297" style="stroke:#181818;stroke-width:0.5;"/><rect fill="#F1F1F1" height="33.9688" rx="12.5" ry="12.5" style="stroke:#181818;stroke-width:0.5;" width="229.3145" x="203.0771" y="736.832"/><text fill="#000000" font-family="sans-serif" font-size="12" lengthAdjust="spacing" textLength="209.3145" x="213.0771" y="757.9707">Permitir leitura ou revisao humana</text><polygon fill="#F1F1F1" points="243.3528,688.4297,392.116,688.4297,404.116,700.4297,392.116,712.4297,243.3528,712.4297,231.3528,700.4297,243.3528,688.4297" style="stroke:#181818;stroke-width:0.5;"/><text fill="#000000" font-family="sans-serif" font-size="11" lengthAdjust="spacing" textLength="19.5024" x="321.7344" y="722.6401">sim</text><text fill="#000000" font-family="sans-serif" font-size="11" lengthAdjust="spacing" textLength="148.7632" x="243.3528" y="704.2378">Exige revisao/intervencao?</text><polygon fill="#F1F1F1" points="317.7344,790.8008,329.7344,802.8008,317.7344,814.8008,305.7344,802.8008,317.7344,790.8008" style="stroke:#181818;stroke-width:0.5;"/><polygon fill="#F1F1F1" points="51.3799,834.8008,166.085,834.8008,178.085,846.8008,166.085,858.8008,51.3799,858.8008,39.3799,846.8008,51.3799,834.8008" style="stroke:#181818;stroke-width:0.5;"/><text fill="#000000" font-family="sans-serif" font-size="11" lengthAdjust="spacing" textLength="43.71" x="112.7324" y="869.0112">sucesso</text><text fill="#000000" font-family="sans-serif" font-size="11" lengthAdjust="spacing" textLength="114.7051" x="51.3799" y="850.6089">Execucao concluida?</text><rect fill="#F1F1F1" height="33.9688" rx="12.5" ry="12.5" style="stroke:#181818;stroke-width:0.5;" width="195.4648" x="11" y="891.6055"/><text fill="#000000" font-family="sans-serif" font-size="12" lengthAdjust="spacing" textLength="175.4648" x="21" y="912.7441">Retornar ou exibir resultados</text><ellipse cx="108.7324" cy="969.3789" fill="none" rx="11" ry="11" style="stroke:#222222;stroke-width:1;"/><ellipse cx="108.7324" cy="969.3789" fill="#222222" rx="6" ry="6" style="stroke:#222222;stroke-width:1;"/><polygon fill="#F1F1F1" points="311.5598,834.8008,379.5847,834.8008,391.5847,846.8008,379.5847,858.8008,311.5598,858.8008,299.5598,846.8008,311.5598,834.8008" style="stroke:#181818;stroke-width:0.5;"/><text fill="#000000" font-family="sans-serif" font-size="11" lengthAdjust="spacing" textLength="68.0249" x="311.5598" y="850.6089">falha parcial</text><text fill="#000000" font-family="sans-serif" font-size="11" lengthAdjust="spacing" textLength="56.0313" x="391.5847" y="844.2065">falha total</text><rect fill="#F1F1F1" height="33.9688" rx="12.5" ry="12.5" style="stroke:#181818;stroke-width:0.5;" width="238.2148" x="226.4648" y="878.8008"/><text fill="#000000" font-family="sans-serif" font-size="12" lengthAdjust="spacing" textLength="218.2148" x="236.4648" y="899.9395">Registrar execucao parcial com erro</text><ellipse cx="345.5723" cy="956.5742" fill="none" rx="11" ry="11" style="stroke:#222222;stroke-width:1;"/><ellipse cx="345.5723" cy="956.5742" fill="#222222" rx="6" ry="6" style="stroke:#222222;stroke-width:1;"/><rect fill="#F1F1F1" height="33.9688" rx="12.5" ry="12.5" style="stroke:#181818;stroke-width:0.5;" width="139.7891" x="484.6797" y="888.2031"/><text fill="#000000" font-family="sans-serif" font-size="12" lengthAdjust="spacing" textLength="119.7891" x="494.6797" y="909.3418">Registrar falha total</text><ellipse cx="554.5742" cy="965.9766" fill="none" rx="11" ry="11" style="stroke:#222222;stroke-width:1;"/><ellipse cx="554.5742" cy="965.9766" fill="#222222" rx="6" ry="6" style="stroke:#222222;stroke-width:1;"/><line style="stroke:#181818;stroke-width:1;" x1="228.5115" x2="218.5115" y1="99.2969" y2="99.2969"/><line style="stroke:#181818;stroke-width:1;" x1="218.5115" x2="218.5115" y1="99.2969" y2="121.2969"/><polygon fill="#181818" points="214.5115,111.2969,218.5115,121.2969,222.5115,111.2969,218.5115,115.2969" style="stroke:#181818;stroke-width:1;"/><line style="stroke:#181818;stroke-width:1;" x1="406.9573" x2="416.9573" y1="99.2969" y2="99.2969"/><line style="stroke:#181818;stroke-width:1;" x1="416.9573" x2="416.9573" y1="99.2969" y2="121.2969"/><polygon fill="#181818" points="412.9573,111.2969,416.9573,121.2969,420.9573,111.2969,416.9573,115.2969" style="stroke:#181818;stroke-width:1;"/><line style="stroke:#181818;stroke-width:1;" x1="218.5115" x2="218.5115" y1="155.2656" y2="173.2656"/><line style="stroke:#181818;stroke-width:1;" x1="218.5115" x2="305.7344" y1="173.2656" y2="173.2656"/><polygon fill="#181818" points="295.7344,169.2656,305.7344,173.2656,295.7344,177.2656,299.7344,173.2656" style="stroke:#181818;stroke-width:1;"/><line style="stroke:#181818;stroke-width:1;" x1="416.9573" x2="416.9573" y1="155.2656" y2="173.2656"/><line style="stroke:#181818;stroke-width:1;" x1="416.9573" x2="329.7344" y1="173.2656" y2="173.2656"/><polygon fill="#181818" points="339.7344,169.2656,329.7344,173.2656,339.7344,177.2656,335.7344,173.2656" style="stroke:#181818;stroke-width:1;"/><line style="stroke:#181818;stroke-width:1;" x1="317.7344" x2="317.7344" y1="67.2969" y2="87.2969"/><polygon fill="#181818" points="313.7344,77.2969,317.7344,87.2969,321.7344,77.2969,317.7344,81.2969" style="stroke:#181818;stroke-width:1;"/><line style="stroke:#181818;stroke-width:1;" x1="317.7344" x2="317.7344" y1="185.2656" y2="205.2656"/><polygon fill="#181818" points="313.7344,195.2656,317.7344,205.2656,321.7344,195.2656,317.7344,199.2656" style="stroke:#181818;stroke-width:1;"/><line style="stroke:#181818;stroke-width:1;" x1="317.7344" x2="317.7344" y1="341.6055" y2="370.1211"/><polygon fill="#181818" points="313.7344,360.1211,317.7344,370.1211,321.7344,360.1211,317.7344,364.1211" style="stroke:#181818;stroke-width:1;"/><line style="stroke:#181818;stroke-width:1;" x1="317.7344" x2="317.7344" y1="283.2344" y2="307.6367"/><polygon fill="#181818" points="313.7344,297.6367,317.7344,307.6367,321.7344,297.6367,317.7344,301.6367" style="stroke:#181818;stroke-width:1;"/><line style="stroke:#181818;stroke-width:1;" x1="387.4683" x2="432.2695" y1="271.2344" y2="271.2344"/><polygon fill="#181818" points="428.2695,340.1211,432.2695,350.1211,436.2695,340.1211,432.2695,344.1211" style="stroke:#181818;stroke-width:1;"/><line style="stroke:#181818;stroke-width:1;" x1="432.2695" x2="432.2695" y1="271.2344" y2="414.1211"/><line style="stroke:#181818;stroke-width:1;" x1="432.2695" x2="317.7344" y1="414.1211" y2="414.1211"/><line style="stroke:#181818;stroke-width:1;" x1="317.7344" x2="317.7344" y1="414.1211" y2="434.1211"/><polygon fill="#181818" points="313.7344,424.1211,317.7344,434.1211,321.7344,424.1211,317.7344,428.1211" style="stroke:#181818;stroke-width:1;"/><line style="stroke:#181818;stroke-width:1;" x1="317.7344" x2="317.7344" y1="239.2344" y2="259.2344"/><polygon fill="#181818" points="313.7344,249.2344,317.7344,259.2344,321.7344,249.2344,317.7344,253.2344" style="stroke:#181818;stroke-width:1;"/><line style="stroke:#181818;stroke-width:1;" x1="317.7344" x2="317.7344" y1="468.0898" y2="488.0898"/><polygon fill="#181818" points="313.7344,478.0898,317.7344,488.0898,321.7344,478.0898,317.7344,482.0898" style="stroke:#181818;stroke-width:1;"/><line style="stroke:#181818;stroke-width:1;" x1="317.7344" x2="317.7344" y1="566.0586" y2="590.4609"/><polygon fill="#181818" points="313.7344,580.4609,317.7344,590.4609,321.7344,580.4609,317.7344,584.4609" style="stroke:#181818;stroke-width:1;"/><line style="stroke:#181818;stroke-width:1;" x1="385.3413" x2="421.9043" y1="554.0586" y2="554.0586"/><polygon fill="#181818" points="417.9043,597.4453,421.9043,607.4453,425.9043,597.4453,421.9043,601.4453" style="stroke:#181818;stroke-width:1;"/><line style="stroke:#181818;stroke-width:1;" x1="421.9043" x2="421.9043" y1="554.0586" y2="656.4297"/><line style="stroke:#181818;stroke-width:1;" x1="421.9043" x2="329.7344" y1="656.4297" y2="656.4297"/><polygon fill="#181818" points="339.7344,652.4297,329.7344,656.4297,339.7344,660.4297,335.7344,656.4297" style="stroke:#181818;stroke-width:1;"/><line style="stroke:#181818;stroke-width:1;" x1="317.7344" x2="317.7344" y1="624.4297" y2="644.4297"/><polygon fill="#181818" points="313.7344,634.4297,317.7344,644.4297,321.7344,634.4297,317.7344,638.4297" style="stroke:#181818;stroke-width:1;"/><line style="stroke:#181818;stroke-width:1;" x1="317.7344" x2="317.7344" y1="522.0586" y2="542.0586"/><polygon fill="#181818" points="313.7344,532.0586,317.7344,542.0586,321.7344,532.0586,317.7344,536.0586" style="stroke:#181818;stroke-width:1;"/><line style="stroke:#181818;stroke-width:1;" x1="317.7344" x2="317.7344" y1="712.4297" y2="736.832"/><polygon fill="#181818" points="313.7344,726.832,317.7344,736.832,321.7344,726.832,317.7344,730.832" style="stroke:#181818;stroke-width:1;"/><line style="stroke:#181818;stroke-width:1;" x1="404.116" x2="442.3916" y1="700.4297" y2="700.4297"/><polygon fill="#181818" points="438.3916,743.8164,442.3916,753.8164,446.3916,743.8164,442.3916,747.8164" style="stroke:#181818;stroke-width:1;"/><line style="stroke:#181818;stroke-width:1;" x1="442.3916" x2="442.3916" y1="700.4297" y2="802.8008"/><line style="stroke:#181818;stroke-width:1;" x1="442.3916" x2="329.7344" y1="802.8008" y2="802.8008"/><polygon fill="#181818" points="339.7344,798.8008,329.7344,802.8008,339.7344,806.8008,335.7344,802.8008" style="stroke:#181818;stroke-width:1;"/><line style="stroke:#181818;stroke-width:1;" x1="317.7344" x2="317.7344" y1="770.8008" y2="790.8008"/><polygon fill="#181818" points="313.7344,780.8008,317.7344,790.8008,321.7344,780.8008,317.7344,784.8008" style="stroke:#181818;stroke-width:1;"/><line style="stroke:#181818;stroke-width:1;" x1="317.7344" x2="317.7344" y1="668.4297" y2="688.4297"/><polygon fill="#181818" points="313.7344,678.4297,317.7344,688.4297,321.7344,678.4297,317.7344,682.4297" style="stroke:#181818;stroke-width:1;"/><line style="stroke:#181818;stroke-width:1;" x1="108.7324" x2="108.7324" y1="925.5742" y2="958.3789"/><polygon fill="#181818" points="104.7324,948.3789,108.7324,958.3789,112.7324,948.3789,108.7324,952.3789" style="stroke:#181818;stroke-width:1;"/><line style="stroke:#181818;stroke-width:1;" x1="345.5723" x2="345.5723" y1="912.7695" y2="945.5742"/><polygon fill="#181818" points="341.5723,935.5742,345.5723,945.5742,349.5723,935.5742,345.5723,939.5742" style="stroke:#181818;stroke-width:1;"/><line style="stroke:#181818;stroke-width:1;" x1="554.5742" x2="554.5742" y1="922.1719" y2="954.9766"/><polygon fill="#181818" points="550.5742,944.9766,554.5742,954.9766,558.5742,944.9766,554.5742,948.9766" style="stroke:#181818;stroke-width:1;"/><line style="stroke:#181818;stroke-width:1;" x1="108.7324" x2="108.7324" y1="858.8008" y2="891.6055"/><polygon fill="#181818" points="104.7324,881.6055,108.7324,891.6055,112.7324,881.6055,108.7324,885.6055" style="stroke:#181818;stroke-width:1;"/><line style="stroke:#181818;stroke-width:1;" x1="345.5723" x2="345.5723" y1="858.8008" y2="878.8008"/><polygon fill="#181818" points="341.5723,868.8008,345.5723,878.8008,349.5723,868.8008,345.5723,872.8008" style="stroke:#181818;stroke-width:1;"/><line style="stroke:#181818;stroke-width:1;" x1="178.085" x2="299.5598" y1="846.8008" y2="846.8008"/><polygon fill="#181818" points="289.5598,842.8008,299.5598,846.8008,289.5598,850.8008,293.5598,846.8008" style="stroke:#181818;stroke-width:1;"/><line style="stroke:#181818;stroke-width:1;" x1="317.7344" x2="317.7344" y1="814.8008" y2="819.8008"/><line style="stroke:#181818;stroke-width:1;" x1="317.7344" x2="108.7324" y1="819.8008" y2="819.8008"/><line style="stroke:#181818;stroke-width:1;" x1="108.7324" x2="108.7324" y1="819.8008" y2="834.8008"/><polygon fill="#181818" points="104.7324,824.8008,108.7324,834.8008,112.7324,824.8008,108.7324,828.8008" style="stroke:#181818;stroke-width:1;"/><line style="stroke:#181818;stroke-width:1;" x1="391.5847" x2="554.5742" y1="846.8008" y2="846.8008"/><line style="stroke:#181818;stroke-width:1;" x1="554.5742" x2="554.5742" y1="846.8008" y2="888.2031"/><polygon fill="#181818" points="550.5742,878.2031,554.5742,888.2031,558.5742,878.2031,554.5742,882.2031" style="stroke:#181818;stroke-width:1;"/><!--SRC=[RP6nRiCm34HtVGN7PEgU34MHfdFH0jrPcRO9oA91IKO-lxJZr57JqURfUFUOEGU2LyPESK1e25uoJznWGsd-UkUH0aTApgMCcftZ5dRdv2Nqf32kOw0Bfqmnq_CUSayHTec7lGCuV58Wpn9nKnyTXKImYoYBvAHiKodW9RRS5QsriU7MkSCN1ikbcyYZ79Sufxi_C2soEaQzxeCw2pilQJ7qI-dQ4o1b6NyNlub6yjRM-Yasza1y6Um3mz4TpXVonT3O6ngDcTn5NzAzaoRRnmfAgOICZQG7IfjeL6bAbfc-yZIBArnhgEKA5-x8J2TEA4ziy7MYQ0t-SnzuDW_4sLhEhDTtq9S18nvhOwiqipGiFfGAP_6KqerZDZBNozdzlwk66qNBFfjUMO-edZ7ykGFT5gvZMpm0gKhbSlF8aXySxYRr_Nu0]--></g></svg>
