<svg xmlns="http://www.w3.org/2000/svg" xmlns:xlink="http://www.w3.org/1999/xlink" contentStyleType="text/css" data-diagram-type="DESCRIPTION" height="949px" preserveAspectRatio="none" style="width:795px;height:949px;background:#FFFFFF;" version="1.1" viewBox="0 0 795 949" width="795px" zoomAndPan="magnify"><defs/><g><!--cluster ShowTrials atual--><g class="cluster" data-entity="ShowTrials atual" data-source-line="16" data-uid="ent0003" id="cluster_ShowTrials atual"><rect fill="none" height="706" rx="2.5" ry="2.5" style="stroke:#444444;stroke-width:1;" width="616" x="173" y="7"/><text fill="#000000" font-family="sans-serif" font-size="14" font-weight="bold" lengthAdjust="spacing" textLength="131.6602" x="415.1699" y="21.9951">ShowTrials atual</text></g><!--cluster Consulta e navegacao--><g class="cluster" data-entity="Consulta e navegacao" data-source-line="17" data-uid="ent0004" id="cluster_Consulta e navegacao"><rect fill="none" height="158" rx="2.5" ry="2.5" style="stroke:#444444;stroke-width:1;" width="189" x="227" y="50"/><text fill="#000000" font-family="sans-serif" font-size="14" font-weight="bold" lengthAdjust="spacing" textLength="173.209" x="234.8955" y="64.9951">Consulta e navegacao</text></g><!--cluster Preparacao e enriquecimento--><g class="cluster" data-entity="Preparacao e enriquecimento" data-source-line="22" data-uid="ent0007" id="cluster_Preparacao e enriquecimento"><rect fill="none" height="93" rx="2.5" ry="2.5" style="stroke:#444444;stroke-width:1;" width="249" x="197" y="232"/><text fill="#000000" font-family="sans-serif" font-size="14" font-weight="bold" lengthAdjust="spacing" textLength="233.1943" x="204.9028" y="246.9951">Preparacao e enriquecimento</text></g><!--cluster Traducao--><g class="cluster" data-entity="Traducao" data-source-line="26" data-uid="ent0009" id="cluster_Traducao"><rect fill="none" height="158" rx="2.5" ry="2.5" style="stroke:#444444;stroke-width:1;" width="199" x="222" y="349"/><text fill="#000000" font-family="sans-serif" font-size="14" font-weight="bold" lengthAdjust="spacing" textLength="73.2539" x="284.873" y="363.9951">Traducao</text></g><!--cluster Analise--><g class="cluster" data-entity="Analise" data-source-line="31" data-uid="ent0012" id="cluster_Analise"><rect fill="none" height="229" rx="2.5" ry="2.5" style="stroke:#444444;stroke-width:1;" width="198" x="567" y="460"/><text fill="#000000" font-family="sans-serif" font-size="14" font-weight="bold" lengthAdjust="spacing" textLength="57.6748" x="637.1626" y="474.9951">Analise</text></g><!--cluster Saida e consolidacao--><g class="cluster" data-entity="Saida e consolidacao" data-source-line="37" data-uid="ent0016" id="cluster_Saida e consolidacao"><rect fill="none" height="158" rx="2.5" ry="2.5" style="stroke:#444444;stroke-width:1;" width="201" x="221" y="531"/><text fill="#000000" font-family="sans-serif" font-size="14" font-weight="bold" lengthAdjust="spacing" textLength="165.3066" x="238.8467" y="545.9951">Saida e consolidacao</text></g><!--entity UC_ListarDocumentos--><g class="entity" data-entity="UC_ListarDocumentos" data-source-line="18" data-uid="ent0005" id="entity_UC_ListarDocumentos"><ellipse cx="321.5291" cy="103.1058" fill="#FFFFFF" rx="78.5291" ry="18.1058" style="stroke:#444444;stroke-width:0.5;"/><text fill="#000000" font-family="sans-serif" font-size="14" lengthAdjust="spacing" textLength="127.1963" x="257.931" y="107.7543">ListarDocumentos</text></g><!--entity UC_ObterDocumento--><g class="entity" data-entity="UC_ObterDocumento" data-source-line="19" data-uid="ent0006" id="entity_UC_ObterDocumento"><ellipse cx="321.3812" cy="174.0762" fill="#FFFFFF" rx="75.8812" ry="17.5762" style="stroke:#444444;stroke-width:0.5;"/><text fill="#000000" font-family="sans-serif" font-size="14" lengthAdjust="spacing" textLength="120.8594" x="260.9515" y="178.7247">ObterDocumento</text></g><!--entity UC_ClassificarDocumento--><g class="entity" data-entity="UC_ClassificarDocumento" data-source-line="23" data-uid="ent0008" id="entity_UC_ClassificarDocumento"><ellipse cx="321.5259" cy="287.8052" fill="#FFFFFF" rx="89.5259" ry="20.3052" style="stroke:#444444;stroke-width:0.5;"/><text fill="#000000" font-family="sans-serif" font-size="14" lengthAdjust="spacing" textLength="152.667" x="245.1924" y="292.4536">ClassificarDocumento</text></g><!--entity UC_TraduzirDocumento--><g class="entity" data-entity="UC_TraduzirDocumento" data-source-line="27" data-uid="ent0010" id="entity_UC_TraduzirDocumento"><ellipse cx="321.4475" cy="403.0895" fill="#FFFFFF" rx="83.4475" ry="19.0895" style="stroke:#444444;stroke-width:0.5;"/><text fill="#000000" font-family="sans-serif" font-size="14" lengthAdjust="spacing" textLength="138.7354" x="252.0798" y="407.7379">TraduzirDocumento</text></g><!--entity UC_ListarTraducoes--><g class="entity" data-entity="UC_ListarTraducoes" data-source-line="28" data-uid="ent0011" id="entity_UC_ListarTraducoes"><ellipse cx="321.6007" cy="473.8201" fill="#FFFFFF" rx="72.1007" ry="16.8201" style="stroke:#444444;stroke-width:0.5;"/><text fill="#000000" font-family="sans-serif" font-size="14" lengthAdjust="spacing" textLength="111.624" x="265.7887" y="478.4686">ListarTraducoes</text></g><!--entity UC_AnalisarDocumento--><g class="entity" data-entity="UC_AnalisarDocumento" data-source-line="32" data-uid="ent0013" id="entity_UC_AnalisarDocumento"><ellipse cx="665.9294" cy="584.9859" fill="#FFFFFF" rx="82.9294" ry="18.9859" style="stroke:#444444;stroke-width:0.5;"/><text fill="#000000" font-family="sans-serif" font-size="14" lengthAdjust="spacing" textLength="137.5322" x="597.1633" y="589.6343">AnalisarDocumento</text></g><!--entity UC_AnalisarAcervo--><g class="entity" data-entity="UC_AnalisarAcervo" data-source-line="33" data-uid="ent0014" id="entity_UC_AnalisarAcervo"><ellipse cx="665.9273" cy="655.7855" fill="#FFFFFF" rx="69.4273" ry="16.2855" style="stroke:#444444;stroke-width:0.5;"/><text fill="#000000" font-family="sans-serif" font-size="14" lengthAdjust="spacing" textLength="104.9316" x="613.4615" y="660.4339">AnalisarAcervo</text></g><!--entity UC_ObterEstatisticas--><g class="entity" data-entity="UC_ObterEstatisticas" data-source-line="34" data-uid="ent0015" id="entity_UC_ObterEstatisticas"><ellipse cx="665.8578" cy="512.9716" fill="#FFFFFF" rx="75.3578" ry="17.4716" style="stroke:#444444;stroke-width:0.5;"/><text fill="#000000" font-family="sans-serif" font-size="14" lengthAdjust="spacing" textLength="119.5947" x="606.0604" y="517.62">ObterEstatisticas</text></g><!--entity UC_ExportarDocumento--><g class="entity" data-entity="UC_ExportarDocumento" data-source-line="38" data-uid="ent0017" id="entity_UC_ExportarDocumento"><ellipse cx="321.5375" cy="585.8075" fill="#FFFFFF" rx="84.5375" ry="19.3075" style="stroke:#444444;stroke-width:0.5;"/><text fill="#000000" font-family="sans-serif" font-size="14" lengthAdjust="spacing" textLength="141.2578" x="250.9086" y="590.4559">ExportarDocumento</text></g><!--entity UC_GerarRelatorio--><g class="entity" data-entity="UC_GerarRelatorio" data-source-line="39" data-uid="ent0018" id="entity_UC_GerarRelatorio"><ellipse cx="321.5214" cy="657.1043" fill="#FFFFFF" rx="68.5214" ry="16.1043" style="stroke:#444444;stroke-width:0.5;"/><text fill="#000000" font-family="sans-serif" font-size="14" lengthAdjust="spacing" textLength="102.6279" x="270.2074" y="661.7527">GerarRelatorio</text></g><!--entity UsuarioOperador--><g class="entity" data-entity="UsuarioOperador" data-source-line="14" data-uid="ent0002" id="entity_UsuarioOperador"><ellipse cx="65.9443" cy="528" fill="#F1F1F1" rx="16" ry="16" style="stroke:#181818;stroke-width:0.5;"/><path d="M65.9443,548 C69.9443,548 72.9443,548 76.9443,544 C84.9443,544 92.9443,552 92.9443,560 L92.9443,564 C92.9443,568 88.9443,572 84.9443,572 L46.9443,572 C42.9443,572 38.9443,568 38.9443,564 L38.9443,560 C38.9443,552 46.9443,544 54.9443,544 C58.9443,548 61.9443,548 65.9443,548" fill="#F1F1F1" style="stroke:#181818;stroke-width:0.5;"/><text fill="#000000" font-family="sans-serif" font-size="14" lengthAdjust="spacing" textLength="119.8887" x="6" y="585.4951">usuario operador</text></g><!--link UsuarioOperador to UC_ListarDocumentos--><g class="link" data-entity-1="UsuarioOperador" data-entity-2="UC_ListarDocumentos" data-source-line="43" data-uid="lnk19" id="link_UsuarioOperador_UC_ListarDocumentos"><path d="M71.07,511.2 C81.51,419.17 112.18,191.48 165,139 C185.54,118.6 209.3028,109.7816 237.2328,105.3916" fill="none" id="UsuarioOperador-to-UC_ListarDocumentos" style="stroke:#666666;stroke-width:1;"/><polygon fill="#666666" points="243.16,104.46,233.6481,101.906,238.2206,105.2364,234.8902,109.8089,243.16,104.46" style="stroke:#666666;stroke-width:1;"/></g><!--link UsuarioOperador to UC_ObterDocumento--><g class="link" data-entity-1="UsuarioOperador" data-entity-2="UC_ObterDocumento" data-source-line="44" data-uid="lnk20" id="link_UsuarioOperador_UC_ObterDocumento"><path d="M70.16,511.39 C77.12,449.52 98.83,327.39 165,251 C192.81,218.9 231.4764,200.7228 265.7064,189.1428" fill="none" id="UsuarioOperador-to-UC_ObterDocumento" style="stroke:#666666;stroke-width:1;"/><polygon fill="#666666" points="271.39,187.22,261.5828,186.3151,266.6537,188.8223,264.1465,193.8932,271.39,187.22" style="stroke:#666666;stroke-width:1;"/></g><!--link UsuarioOperador to UC_ClassificarDocumento--><g class="link" data-entity-1="UsuarioOperador" data-entity-2="UC_ClassificarDocumento" data-source-line="45" data-uid="lnk21" id="link_UsuarioOperador_UC_ClassificarDocumento"><path d="M80.01,511.25 C95.11,471.17 123.38,408.85 165,368 C194.69,338.87 231.5522,320.2209 264.6022,307.1209" fill="none" id="UsuarioOperador-to-UC_ClassificarDocumento" style="stroke:#666666;stroke-width:1;"/><polygon fill="#666666" points="270.18,304.91,260.3394,304.5078,265.5318,306.7524,263.2872,311.9449,270.18,304.91" style="stroke:#666666;stroke-width:1;"/></g><!--link UsuarioOperador to UC_TraduzirDocumento--><g class="link" data-entity-1="UsuarioOperador" data-entity-2="UC_TraduzirDocumento" data-source-line="46" data-uid="lnk22" id="link_UsuarioOperador_UC_TraduzirDocumento"><path d="M91.62,511.5 C109.19,487.11 134.97,456.9 165,439 C189.04,424.67 212.4308,417.1978 239.0608,412.0078" fill="none" id="UsuarioOperador-to-UC_TraduzirDocumento" style="stroke:#666666;stroke-width:1;"/><polygon fill="#666666" points="244.95,410.86,235.351,408.6555,240.0423,411.8165,236.8814,416.5078,244.95,410.86" style="stroke:#666666;stroke-width:1;"/></g><!--link UsuarioOperador to UC_ListarTraducoes--><g class="link" data-entity-1="UsuarioOperador" data-entity-2="UC_ListarTraducoes" data-source-line="47" data-uid="lnk23" id="link_UsuarioOperador_UC_ListarTraducoes"><path d="M126.11,532.28 C171.91,518.55 228.6128,501.5533 270.2328,489.0733" fill="none" id="UsuarioOperador-to-UC_ListarTraducoes" style="stroke:#666666;stroke-width:1;"/><polygon fill="#666666" points="275.98,487.35,266.2103,486.1035,271.1907,488.7861,268.5081,493.7664,275.98,487.35" style="stroke:#666666;stroke-width:1;"/></g><!--link UsuarioOperador to UC_AnalisarDocumento--><g class="link" data-entity-1="UsuarioOperador" data-entity-2="UC_AnalisarDocumento" data-source-line="48" data-uid="lnk24" id="link_UsuarioOperador_UC_AnalisarDocumento"><path d="M71.49,588.52 C79.35,636.27 100.47,715.79 156,752 C303.05,847.9 423.11,872.27 551,752 C572.09,732.18 541.53,645.08 559,622 C568.47,609.5 576.8498,603.3009 591.5898,597.7909" fill="none" id="UsuarioOperador-to-UC_AnalisarDocumento" style="stroke:#666666;stroke-width:1;"/><polygon fill="#666666" points="597.21,595.69,587.3792,595.0946,592.5265,597.4407,590.1803,602.5881,597.21,595.69" style="stroke:#666666;stroke-width:1;"/></g><!--link UsuarioOperador to UC_AnalisarAcervo--><g class="link" data-entity-1="UsuarioOperador" data-entity-2="UC_AnalisarAcervo" data-source-line="49" data-uid="lnk25" id="link_UsuarioOperador_UC_AnalisarAcervo"><path d="M66.8,588.7 C68.83,653.69 83.49,783.39 165,842 C304.78,942.54 411.79,910.33 551,809 C602.69,771.38 638.5183,708.8772 654.3583,677.7572" fill="none" id="UsuarioOperador-to-UC_AnalisarAcervo" style="stroke:#666666;stroke-width:1;"/><polygon fill="#666666" points="657.08,672.41,649.4327,678.6163,654.8119,676.866,656.5622,682.2452,657.08,672.41" style="stroke:#666666;stroke-width:1;"/></g><!--link UsuarioOperador to UC_ObterEstatisticas--><g class="link" data-entity-1="UsuarioOperador" data-entity-2="UC_ObterEstatisticas" data-source-line="50" data-uid="lnk26" id="link_UsuarioOperador_UC_ObterEstatisticas"><path d="M82.05,588.65 C97.37,622.02 124.63,668.07 165,689 C279.03,748.13 332.72,731.29 454,689 C505.97,670.88 524.03,659.99 551,612 C565.05,587.02 540.79,570.15 559,548 C569.52,535.21 579.1407,528.9256 594.8807,523.7456" fill="none" id="UsuarioOperador-to-UC_ObterEstatisticas" style="stroke:#666666;stroke-width:1;"/><polygon fill="#666666" points="600.58,521.87,590.7806,520.8839,595.8306,523.433,593.2815,528.483,600.58,521.87" style="stroke:#666666;stroke-width:1;"/></g><!--link UsuarioOperador to UC_ExportarDocumento--><g class="link" data-entity-1="UsuarioOperador" data-entity-2="UC_ExportarDocumento" data-source-line="51" data-uid="lnk27" id="link_UsuarioOperador_UC_ExportarDocumento"><path d="M126.11,558.4 C162.84,563.61 204.3295,569.5068 243.1495,575.0168" fill="none" id="UsuarioOperador-to-UC_ExportarDocumento" style="stroke:#666666;stroke-width:1;"/><polygon fill="#666666" points="249.09,575.86,240.7414,570.6349,244.1396,575.1574,239.6172,578.5555,249.09,575.86" style="stroke:#666666;stroke-width:1;"/></g><!--link UsuarioOperador to UC_GerarRelatorio--><g class="link" data-entity-1="UsuarioOperador" data-entity-2="UC_GerarRelatorio" data-source-line="52" data-uid="lnk28" id="link_UsuarioOperador_UC_GerarRelatorio"><path d="M110.8,588.87 C126.9,601.4 145.89,614.29 165,623 C194.8,636.59 224.4136,643.8816 253.9836,648.8716" fill="none" id="UsuarioOperador-to-UC_GerarRelatorio" style="stroke:#666666;stroke-width:1;"/><polygon fill="#666666" points="259.9,649.87,251.6911,644.4282,254.9697,649.038,250.3599,652.3166,259.9,649.87" style="stroke:#666666;stroke-width:1;"/></g><!--link UC_GerarRelatorio to UC_ObterEstatisticas--><g class="link" data-entity-1="UC_GerarRelatorio" data-entity-2="UC_ObterEstatisticas" data-source-line="54" data-uid="lnk29" id="link_UC_GerarRelatorio_UC_ObterEstatisticas"><path d="M377.15,647.58 C401.4,642.22 429.85,634.27 454,623 C505.97,598.75 507.86,573.96 559,548 C576.63,539.06 591.3097,533.4687 609.4797,527.8287" fill="none" id="UC_GerarRelatorio-to-UC_ObterEstatisticas" style="stroke:#666666;stroke-width:1;stroke-dasharray:7,7;"/><polygon fill="#666666" points="615.21,526.05,605.4288,524.8978,610.4348,527.5322,607.8004,532.5382,615.21,526.05" style="stroke:#666666;stroke-width:1;"/><text fill="#000000" font-family="sans-serif" font-size="13" lengthAdjust="spacing" textLength="63.0068" x="487" y="549.0669">&#171;include&#187;</text></g><!--SRC=[XLDDRzim3BtxLn3kkJqDEmn5W2mhTXdGOUdE0oSpZb15J2cftWVwtwTONc9RSgkJyHu_7ibdGpiFda5qk_VGQ27bDTlAFMfxHC43k3qst6dRmWwDen5pHFM8BMtzRqDmIaJRcd40Ai-IQEp8yM5C1aSA7S7V2k1ZhDGA1zjisB10jzUUJZXBGvAmgtVzY-XQXBi1VD-_wcLK-AmabIwKUAcgNXhKmGKKpS17aZYcr80ElYVmVi2gwbAntkwvUn0TDm7e0vgwRp9i0keDMnUCHo2m-4mjAkGK0kU1wo_QUPHFhCA1h6UNccv-pF5frlrFJnVoVyuKZHbnjf6UhqAdfKGLKH5PqK-1b1ugp6Hj33gdTrfXtgR4PSqUuhf2QU2U-AFpiXbHMbGgopJRqndETAmj6kqeav7mmdGPKSvRAvBdB2cXXLlTHPK-IerBSvDpZObC_1PrSxAFYavY4xzB2xtxTMJnXKaoOfhtEJfQlf71Q7vzJfgYlQAeQVONmFNrgcZIXRYPCHUYYhvQYCtDygh4YpyMmlAhln4uNFgrWIUdNGZCRxGGEBjBbK5mSrDk3H_WzbPRPK93gzK_]--></g></svg>
