<svg xmlns="http://www.w3.org/2000/svg" xmlns:xlink="http://www.w3.org/1999/xlink" contentStyleType="text/css" data-diagram-type="DESCRIPTION" height="466px" preserveAspectRatio="none" style="width:458px;height:466px;background:#FFFFFF;" version="1.1" viewBox="0 0 458 466" width="458px" zoomAndPan="magnify"><defs/><g><!--cluster Sistema-alvo / engine futura--><g class="cluster" data-entity="Sistema-alvo . engine futura" data-source-line="16" data-uid="ent0003" id="cluster_Sistema-alvo . engine futura"><rect fill="none" height="453" rx="2.5" ry="2.5" style="stroke:#444444;stroke-width:1;" width="256" x="196" y="7"/><text fill="#000000" font-family="sans-serif" font-size="14" font-weight="bold" lengthAdjust="spacing" textLength="224.7861" x="211.6069" y="21.9951">Sistema-alvo / engine futura</text></g><!--entity UC_CriarPipeline--><g class="entity" data-entity="UC_CriarPipeline" data-source-line="17" data-uid="ent0004" id="entity_UC_CriarPipeline"><ellipse cx="323.7799" cy="57.056" fill="#FFFFFF" rx="63.2799" ry="15.056" style="stroke:#444444;stroke-width:0.5;"/><text fill="#000000" font-family="sans-serif" font-size="14" lengthAdjust="spacing" textLength="88.8535" x="279.3531" y="61.7044">CriarPipeline</text></g><!--entity UC_ListarPipelines--><g class="entity" data-entity="UC_ListarPipelines" data-source-line="18" data-uid="ent0005" id="entity_UC_ListarPipelines"><ellipse cx="323.9634" cy="122.9927" fill="#FFFFFF" rx="67.9634" ry="15.9927" style="stroke:#444444;stroke-width:0.5;"/><text fill="#000000" font-family="sans-serif" font-size="14" lengthAdjust="spacing" textLength="101.1992" x="273.3638" y="127.6411">ListarPipelines</text></g><!--entity UC_EditarPipeline--><g class="entity" data-entity="UC_EditarPipeline" data-source-line="19" data-uid="ent0006" id="entity_UC_EditarPipeline"><ellipse cx="324.1673" cy="190.1335" fill="#FFFFFF" rx="66.1673" ry="15.6335" style="stroke:#444444;stroke-width:0.5;"/><text fill="#000000" font-family="sans-serif" font-size="14" lengthAdjust="spacing" textLength="96.5439" x="275.8953" y="194.7819">EditarPipeline</text></g><!--entity UC_ExecutarPipelineDocumental--><g class="entity" data-entity="UC_ExecutarPipelineDocumental" data-source-line="20" data-uid="ent0007" id="entity_UC_ExecutarPipelineDocumental"><ellipse cx="324.0166" cy="265.8033" fill="#FFFFFF" rx="112.0166" ry="24.8033" style="stroke:#444444;stroke-width:0.5;"/><text fill="#000000" font-family="sans-serif" font-size="14" lengthAdjust="spacing" textLength="202.2344" x="222.8994" y="270.4518">ExecutarPipelineDocumental</text></g><!--entity UC_PersistirProdutosDerivados--><g class="entity" data-entity="UC_PersistirProdutosDerivados" data-source-line="21" data-uid="ent0008" id="entity_UC_PersistirProdutosDerivados"><ellipse cx="323.8835" cy="350.0767" fill="#FFFFFF" rx="105.8835" ry="23.5767" style="stroke:#444444;stroke-width:0.5;"/><text fill="#000000" font-family="sans-serif" font-size="14" lengthAdjust="spacing" textLength="188.9453" x="229.4108" y="354.7251">PersistirProdutosDerivados</text></g><!--entity UC_RevisarTraducao--><g class="entity" data-entity="UC_RevisarTraducao" data-source-line="22" data-uid="ent0009" id="entity_UC_RevisarTraducao"><ellipse cx="324.0493" cy="425.8099" fill="#FFFFFF" rx="74.5493" ry="17.3099" style="stroke:#444444;stroke-width:0.5;"/><text fill="#000000" font-family="sans-serif" font-size="14" lengthAdjust="spacing" textLength="117.6328" x="265.2328" y="430.4583">RevisarTraducao</text></g><!--entity UsuarioConfigurador--><g class="entity" data-entity="UsuarioConfigurador" data-source-line="14" data-uid="ent0002" id="entity_UsuarioConfigurador"><ellipse cx="78.7686" cy="206" fill="#F1F1F1" rx="16" ry="16" style="stroke:#181818;stroke-width:0.5;"/><path d="M78.7686,226 C82.7686,226 85.7686,226 89.7686,222 C97.7686,222 105.7686,230 105.7686,238 L105.7686,242 C105.7686,246 101.7686,250 97.7686,250 L59.7686,250 C55.7686,250 51.7686,246 51.7686,242 L51.7686,238 C51.7686,230 59.7686,222 67.7686,222 C71.7686,226 74.7686,226 78.7686,226" fill="#F1F1F1" style="stroke:#181818;stroke-width:0.5;"/><text fill="#000000" font-family="sans-serif" font-size="14" lengthAdjust="spacing" textLength="145.5371" x="6" y="263.4951">usuario configurador</text></g><!--link UsuarioConfigurador to UC_CriarPipeline--><g class="link" data-entity-1="UsuarioConfigurador" data-entity-2="UC_CriarPipeline" data-source-line="25" data-uid="lnk10" id="link_UsuarioConfigurador_UC_CriarPipeline"><path d="M100.2,189.31 C118.79,157.54 149.32,113.88 188,89 C210.59,74.47 233.1984,67.5563 258.1984,63.2163" fill="none" id="UsuarioConfigurador-to-UC_CriarPipeline" style="stroke:#666666;stroke-width:1;"/><polygon fill="#666666" points="264.11,62.19,254.5585,59.7883,259.1837,63.0452,255.9268,67.6704,264.11,62.19" style="stroke:#666666;stroke-width:1;"/></g><!--link UsuarioConfigurador to UC_ListarPipelines--><g class="link" data-entity-1="UsuarioConfigurador" data-entity-2="UC_ListarPipelines" data-source-line="26" data-uid="lnk11" id="link_UsuarioConfigurador_UC_ListarPipelines"><path d="M130.99,189.44 C148.37,177.69 168.38,165.62 188,157 C213.56,145.77 237.664,139.0111 262.874,133.5911" fill="none" id="UsuarioConfigurador-to-UC_ListarPipelines" style="stroke:#666666;stroke-width:1;"/><polygon fill="#666666" points="268.74,132.33,259.1003,130.3111,263.8517,133.381,260.7818,138.1324,268.74,132.33" style="stroke:#666666;stroke-width:1;"/></g><!--link UsuarioConfigurador to UC_EditarPipeline--><g class="link" data-entity-1="UsuarioConfigurador" data-entity-2="UC_EditarPipeline" data-source-line="27" data-uid="lnk12" id="link_UsuarioConfigurador_UC_EditarPipeline"><path d="M152.25,216.7 C189.46,210.88 228.1719,204.8264 262.4719,199.4664" fill="none" id="UsuarioConfigurador-to-UC_EditarPipeline" style="stroke:#666666;stroke-width:1;"/><polygon fill="#666666" points="268.4,198.54,258.8903,195.9775,263.46,199.312,260.1255,203.8816,268.4,198.54" style="stroke:#666666;stroke-width:1;"/></g><!--link UsuarioConfigurador to UC_ExecutarPipelineDocumental--><g class="link" data-entity-1="UsuarioConfigurador" data-entity-2="UC_ExecutarPipelineDocumental" data-source-line="28" data-uid="lnk13" id="link_UsuarioConfigurador_UC_ExecutarPipelineDocumental"><path d="M152.25,239.3 C177.15,243.19 199.452,246.6834 225.682,250.7834" fill="none" id="UsuarioConfigurador-to-UC_ExecutarPipelineDocumental" style="stroke:#666666;stroke-width:1;"/><polygon fill="#666666" points="231.61,251.71,223.3357,246.3681,226.67,250.9378,222.1002,254.2721,231.61,251.71" style="stroke:#666666;stroke-width:1;"/></g><!--link UsuarioConfigurador to UC_PersistirProdutosDerivados--><g class="link" data-entity-1="UsuarioConfigurador" data-entity-2="UC_PersistirProdutosDerivados" data-source-line="29" data-uid="lnk14" id="link_UsuarioConfigurador_UC_PersistirProdutosDerivados"><path d="M125.07,266.68 C143.64,281.17 165.94,296.81 188,308 C207.92,318.11 224.9874,324.6015 246.1274,331.0015" fill="none" id="UsuarioConfigurador-to-UC_PersistirProdutosDerivados" style="stroke:#666666;stroke-width:1;"/><polygon fill="#666666" points="251.87,332.74,244.4151,326.3038,247.0845,331.2912,242.0971,333.9606,251.87,332.74" style="stroke:#666666;stroke-width:1;"/></g><!--link UsuarioConfigurador to UC_RevisarTraducao--><g class="link" data-entity-1="UsuarioConfigurador" data-entity-2="UC_RevisarTraducao" data-source-line="30" data-uid="lnk15" id="link_UsuarioConfigurador_UC_RevisarTraducao"><path d="M95.68,266.62 C112.84,304.02 143.92,359.56 188,391 C207.91,405.2 227.2549,412.3851 250.4849,417.3951" fill="none" id="UsuarioConfigurador-to-UC_RevisarTraducao" style="stroke:#666666;stroke-width:1;"/><polygon fill="#666666" points="256.35,418.66,248.3956,412.8525,251.4624,417.6059,246.709,420.6727,256.35,418.66" style="stroke:#666666;stroke-width:1;"/></g><!--SRC=[VP4nJyCm48Nt_8fJc2iMn8W4AHj3HM569-UIdfhughFTW53_Esv2MpTju_7TzvxFpmrL7ho0ShtoKBAIyImsSsks6rHimQsmb8vj3HKsZfB91iqQQrhwduPWRqHRDoc0neiEO-p8IPiEWoE3Zk0t0tY9IRLAi6KXZIXqA_QqrqLBqa6xU-XFL9zLfViN7_kJxPBWuoP3z9M8NPRrgq4UN41b0IEsuZfeVAhcW0u-Xq6Hw5bsIiwNx3orECDcAt0FP6ks15NmaStxYm_lomjbr0Llg8d845vydOaf_HQ3JnDtu4TowdWjsLzUSAwUyTzaGZARYmajMO_DqNkJI7CMf2vknRfGAOCNDoVbRMpgkFHj8irvfoqxr8zOSZ0e1_D8td_QbK-1sUpfiiy9S5pa13ggS8gyNTY4QwAU2TUebpy0]--></g></svg>
