<svg xmlns="http://www.w3.org/2000/svg" xmlns:xlink="http://www.w3.org/1999/xlink" contentStyleType="text/css" data-diagram-type="CLASS" height="1052px" preserveAspectRatio="none" style="width:1354px;height:1052px;background:#FFFFFF;" version="1.1" viewBox="0 0 1354 1052" width="1354px" zoomAndPan="magnify"><title>Diagrama de Classes de Dominio</title><defs/><g><g class="title" data-source-line="1"><text fill="#000000" font-family="sans-serif" font-size="14" font-weight="bold" lengthAdjust="spacing" textLength="258.8291" x="541.0596" y="22.9951">Diagrama de Classes de Dominio</text></g><!--cluster Dominio Atual--><g class="cluster" data-entity="Dominio Atual" data-source-line="7" data-uid="ent0002" id="cluster_Dominio Atual"><path d="M8.5,43.2969 L121.124,43.2969 A3.75,3.75 0 0 1 123.624,45.7969 L130.624,65.5938 L617.5,65.5938 A2.5,2.5 0 0 1 620,68.0938 L620,947.7969 A2.5,2.5 0 0 1 617.5,950.2969 L8.5,950.2969 A2.5,2.5 0 0 1 6,947.7969 L6,45.7969 A2.5,2.5 0 0 1 8.5,43.2969" fill="none" style="stroke:#000000;stroke-width:1.5;"/><line style="stroke:#000000;stroke-width:1.5;" x1="6" x2="130.624" y1="65.5938" y2="65.5938"/><text fill="#000000" font-family="sans-serif" font-size="14" font-weight="bold" lengthAdjust="spacing" textLength="111.624" x="10" y="58.292">Dominio Atual</text></g><!--cluster Nucleo Evolutivo Futuro--><g class="cluster" data-entity="Nucleo Evolutivo Futuro" data-source-line="54" data-uid="ent0010" id="cluster_Nucleo Evolutivo Futuro"><path d="M646.5,197.2969 L837.1631,197.2969 A3.75,3.75 0 0 1 839.6631,199.7969 L846.6631,219.5938 L846.5,219.5938 A2.5,2.5 0 0 1 849,222.0938 L849,1042.7969 A2.5,2.5 0 0 1 846.5,1045.2969 L646.5,1045.2969 A2.5,2.5 0 0 1 644,1042.7969 L644,199.7969 A2.5,2.5 0 0 1 646.5,197.2969" fill="none" style="stroke:#000000;stroke-width:1.5;"/><line style="stroke:#000000;stroke-width:1.5;" x1="644" x2="846.6631" y1="219.5938" y2="219.5938"/><text fill="#000000" font-family="sans-serif" font-size="14" font-weight="bold" lengthAdjust="spacing" textLength="189.6631" x="648" y="212.292">Nucleo Evolutivo Futuro</text></g><!--class Documento--><g class="entity" data-entity="Documento" data-source-line="8" data-uid="ent0003" id="entity_Documento"><rect fill="#F1F1F1" height="268.1563" rx="2.5" ry="2.5" style="stroke:#181818;stroke-width:0.5;" width="238.1328" x="366" y="402.2969"/><ellipse cx="440.269" cy="418.2969" fill="#ADD1B2" rx="11" ry="11" style="stroke:#181818;stroke-width:1;"/><path d="M443.2378,423.9375 Q442.6597,424.2344 442.019,424.375 Q441.3784,424.5313 440.6753,424.5313 Q438.1753,424.5313 436.8472,422.8906 Q435.5347,421.2344 435.5347,418.1094 Q435.5347,414.9844 436.8472,413.3281 Q438.1753,411.6719 440.6753,411.6719 Q441.3784,411.6719 442.019,411.8281 Q442.6753,411.9844 443.2378,412.2813 L443.2378,415 Q442.6128,414.4219 442.019,414.1563 Q441.4253,413.875 440.8003,413.875 Q439.4565,413.875 438.769,414.9531 Q438.0815,416.0156 438.0815,418.1094 Q438.0815,420.2031 438.769,421.2813 Q439.4565,422.3438 440.8003,422.3438 Q441.4253,422.3438 442.019,422.0781 Q442.6128,421.7969 443.2378,421.2188 L443.2378,423.9375 Z " fill="#000000"/><text fill="#000000" font-family="sans-serif" font-size="14" lengthAdjust="spacing" textLength="81.0947" x="460.769" y="423.1436">Documento</text><line style="stroke:#181818;stroke-width:0.5;" x1="367" x2="603.1328" y1="434.2969" y2="434.2969"/><text fill="#000000" font-family="sans-serif" font-size="14" lengthAdjust="spacing" textLength="122.042" x="372" y="451.292">+id: Optional[int]</text><text fill="#000000" font-family="sans-serif" font-size="14" lengthAdjust="spacing" textLength="84.4307" x="372" y="467.5889">+centro: str</text><text fill="#000000" font-family="sans-serif" font-size="14" lengthAdjust="spacing" textLength="75.6328" x="372" y="483.8857">+titulo: str</text><text fill="#000000" font-family="sans-serif" font-size="14" lengthAdjust="spacing" textLength="57.9551" x="372" y="500.1826">+url: str</text><text fill="#000000" font-family="sans-serif" font-size="14" lengthAdjust="spacing" textLength="75.8789" x="372" y="516.4795">+texto: str</text><text fill="#000000" font-family="sans-serif" font-size="14" lengthAdjust="spacing" textLength="165.4639" x="372" y="532.7764">+data_coleta: datetime</text><text fill="#000000" font-family="sans-serif" font-size="14" lengthAdjust="spacing" textLength="200.416" x="372" y="549.0732">+data_original: Optional[str]</text><text fill="#000000" font-family="sans-serif" font-size="14" lengthAdjust="spacing" textLength="136.3838" x="372" y="565.3701">+tipo: Optional[str]</text><text fill="#000000" font-family="sans-serif" font-size="14" lengthAdjust="spacing" textLength="210.3623" x="372" y="581.667">+tipo_descricao: Optional[str]</text><text fill="#000000" font-family="sans-serif" font-size="14" lengthAdjust="spacing" textLength="226.1328" x="372" y="597.9639">+pessoa_principal: Optional[str]</text><text fill="#000000" font-family="sans-serif" font-size="14" lengthAdjust="spacing" textLength="183.251" x="372" y="614.2607">+remetente: Optional[str]</text><text fill="#000000" font-family="sans-serif" font-size="14" lengthAdjust="spacing" textLength="193.457" x="372" y="630.5576">+destinatario: Optional[str]</text><text fill="#000000" font-family="sans-serif" font-size="14" lengthAdjust="spacing" textLength="149.9805" x="372" y="646.8545">+envolvidos: List[str]</text><text fill="#000000" font-family="sans-serif" font-size="14" lengthAdjust="spacing" textLength="135.7549" x="372" y="663.1514">+tem_anexos: bool</text></g><!--class Traducao--><g class="entity" data-entity="Traducao" data-source-line="25" data-uid="ent0004" id="entity_Traducao"><rect fill="#F1F1F1" height="154.0781" rx="2.5" ry="2.5" style="stroke:#181818;stroke-width:0.5;" width="197.0557" x="22.5" y="171.2969"/><ellipse cx="84.0337" cy="187.2969" fill="#ADD1B2" rx="11" ry="11" style="stroke:#181818;stroke-width:1;"/><path d="M87.0024,192.9375 Q86.4243,193.2344 85.7837,193.375 Q85.1431,193.5313 84.4399,193.5313 Q81.9399,193.5313 80.6118,191.8906 Q79.2993,190.2344 79.2993,187.1094 Q79.2993,183.9844 80.6118,182.3281 Q81.9399,180.6719 84.4399,180.6719 Q85.1431,180.6719 85.7837,180.8281 Q86.4399,180.9844 87.0024,181.2813 L87.0024,184 Q86.3774,183.4219 85.7837,183.1563 Q85.1899,182.875 84.5649,182.875 Q83.2212,182.875 82.5337,183.9531 Q81.8462,185.0156 81.8462,187.1094 Q81.8462,189.2031 82.5337,190.2813 Q83.2212,191.3438 84.5649,191.3438 Q85.1899,191.3438 85.7837,191.0781 Q86.3774,190.7969 87.0024,190.2188 L87.0024,192.9375 Z " fill="#000000"/><text fill="#000000" font-family="sans-serif" font-size="14" lengthAdjust="spacing" textLength="65.4883" x="104.5337" y="192.1436">Traducao</text><line style="stroke:#181818;stroke-width:0.5;" x1="23.5" x2="218.5557" y1="203.2969" y2="203.2969"/><text fill="#000000" font-family="sans-serif" font-size="14" lengthAdjust="spacing" textLength="122.042" x="28.5" y="220.292">+id: Optional[int]</text><text fill="#000000" font-family="sans-serif" font-size="14" lengthAdjust="spacing" textLength="138.127" x="28.5" y="236.5889">+documento_id: int</text><text fill="#000000" font-family="sans-serif" font-size="14" lengthAdjust="spacing" textLength="86.8848" x="28.5" y="252.8857">+idioma: str</text><text fill="#000000" font-family="sans-serif" font-size="14" lengthAdjust="spacing" textLength="149.1533" x="28.5" y="269.1826">+texto_traduzido: str</text><text fill="#000000" font-family="sans-serif" font-size="14" lengthAdjust="spacing" textLength="185.0557" x="28.5" y="285.4795">+data_traducao: datetime</text><text fill="#000000" font-family="sans-serif" font-size="14" lengthAdjust="spacing" textLength="161.7109" x="28.5" y="301.7764">+modelo: Optional[str]</text><text fill="#000000" font-family="sans-serif" font-size="14" lengthAdjust="spacing" textLength="90.2686" x="28.5" y="318.0732">+custo: float</text></g><!--class TipoDocumento--><g class="entity" data-entity="TipoDocumento" data-source-line="35" data-uid="ent0005" id="entity_TipoDocumento"><rect fill="#F1F1F1" height="186.6719" rx="2.5" ry="2.5" style="stroke:#181818;stroke-width:0.5;" width="142.9883" x="413.5" y="747.2969"/><ellipse cx="428.5" cy="763.2969" fill="#EB937F" rx="11" ry="11" style="stroke:#181818;stroke-width:1;"/><path d="M432.6094,769.2969 L424.8906,769.2969 L424.8906,756.9063 L432.6094,756.9063 L432.6094,759.0625 L427.3438,759.0625 L427.3438,761.7344 L432.1094,761.7344 L432.1094,763.8906 L427.3438,763.8906 L427.3438,767.1406 L432.6094,767.1406 L432.6094,769.2969 Z " fill="#000000"/><text fill="#000000" font-family="sans-serif" font-size="14" lengthAdjust="spacing" textLength="110.9883" x="442.5" y="768.1436">TipoDocumento</text><line style="stroke:#181818;stroke-width:0.5;" x1="414.5" x2="555.4883" y1="779.2969" y2="779.2969"/><text fill="#000000" font-family="sans-serif" font-size="14" lengthAdjust="spacing" textLength="127.3467" x="419.5" y="796.292">INTERROGATORIO</text><text fill="#000000" font-family="sans-serif" font-size="14" lengthAdjust="spacing" textLength="87.4521" x="419.5" y="812.5889">ACAREACAO</text><text fill="#000000" font-family="sans-serif" font-size="14" lengthAdjust="spacing" textLength="78.4355" x="419.5" y="828.8857">ACUSACAO</text><text fill="#000000" font-family="sans-serif" font-size="14" lengthAdjust="spacing" textLength="96.4551" x="419.5" y="845.1826">DECLARACAO</text><text fill="#000000" font-family="sans-serif" font-size="14" lengthAdjust="spacing" textLength="47.209" x="419.5" y="861.4795">CARTA</text><text fill="#000000" font-family="sans-serif" font-size="14" lengthAdjust="spacing" textLength="80.3975" x="419.5" y="877.7764">RELATORIO</text><text fill="#000000" font-family="sans-serif" font-size="14" lengthAdjust="spacing" textLength="94.1855" x="419.5" y="894.0732">DEPOIMENTO</text><text fill="#000000" font-family="sans-serif" font-size="14" lengthAdjust="spacing" textLength="49.4238" x="419.5" y="910.3701">LAUDO</text><text fill="#000000" font-family="sans-serif" font-size="14" lengthAdjust="spacing" textLength="114.8574" x="419.5" y="926.667">DESCONHECIDO</text></g><!--class NomeRusso--><g class="entity" data-entity="NomeRusso" data-source-line="47" data-uid="ent0006" id="entity_NomeRusso"><rect fill="#F1F1F1" height="32" rx="2.5" ry="2.5" style="stroke:#181818;stroke-width:0.5;" width="115.043" x="366.5" y="78.2969"/><ellipse cx="381.5" cy="94.2969" fill="#ADD1B2" rx="11" ry="11" style="stroke:#181818;stroke-width:1;"/><path d="M384.4688,99.9375 Q383.8906,100.2344 383.25,100.375 Q382.6094,100.5313 381.9063,100.5313 Q379.4063,100.5313 378.0781,98.8906 Q376.7656,97.2344 376.7656,94.1094 Q376.7656,90.9844 378.0781,89.3281 Q379.4063,87.6719 381.9063,87.6719 Q382.6094,87.6719 383.25,87.8281 Q383.9063,87.9844 384.4688,88.2813 L384.4688,91 Q383.8438,90.4219 383.25,90.1563 Q382.6563,89.875 382.0313,89.875 Q380.6875,89.875 380,90.9531 Q379.3125,92.0156 379.3125,94.1094 Q379.3125,96.2031 380,97.2813 Q380.6875,98.3438 382.0313,98.3438 Q382.6563,98.3438 383.25,98.0781 Q383.8438,97.7969 384.4688,97.2188 L384.4688,99.9375 Z " fill="#000000"/><text fill="#000000" font-family="sans-serif" font-size="14" lengthAdjust="spacing" textLength="83.043" x="395.5" y="99.1436">NomeRusso</text></g><!--class AnaliseTexto--><g class="entity" data-entity="AnaliseTexto" data-source-line="48" data-uid="ent0007" id="entity_AnaliseTexto"><rect fill="#F1F1F1" height="32" rx="2.5" ry="2.5" style="stroke:#181818;stroke-width:0.5;" width="122.2207" x="482" y="232.2969"/><ellipse cx="497" cy="248.2969" fill="#ADD1B2" rx="11" ry="11" style="stroke:#181818;stroke-width:1;"/><path d="M499.9688,253.9375 Q499.3906,254.2344 498.75,254.375 Q498.1094,254.5313 497.4063,254.5313 Q494.9063,254.5313 493.5781,252.8906 Q492.2656,251.2344 492.2656,248.1094 Q492.2656,244.9844 493.5781,243.3281 Q494.9063,241.6719 497.4063,241.6719 Q498.1094,241.6719 498.75,241.8281 Q499.4063,241.9844 499.9688,242.2813 L499.9688,245 Q499.3438,244.4219 498.75,244.1563 Q498.1563,243.875 497.5313,243.875 Q496.1875,243.875 495.5,244.9531 Q494.8125,246.0156 494.8125,248.1094 Q494.8125,250.2031 495.5,251.2813 Q496.1875,252.3438 497.5313,252.3438 Q498.1563,252.3438 498.75,252.0781 Q499.3438,251.7969 499.9688,251.2188 L499.9688,253.9375 Z " fill="#000000"/><text fill="#000000" font-family="sans-serif" font-size="14" lengthAdjust="spacing" textLength="90.2207" x="511" y="253.1436">AnaliseTexto</text></g><!--class RepositorioDocumento--><g class="entity" data-entity="RepositorioDocumento" data-source-line="50" data-uid="ent0008" id="entity_RepositorioDocumento"><rect fill="#F1F1F1" height="32" rx="2.5" ry="2.5" style="stroke:#181818;stroke-width:0.5;" width="192.3369" x="255" y="232.2969"/><ellipse cx="270" cy="248.2969" fill="#B4A7E5" rx="11" ry="11" style="stroke:#181818;stroke-width:1;"/><path d="M265.9219,244.0625 L265.9219,241.9063 L273.3125,241.9063 L273.3125,244.0625 L270.8438,244.0625 L270.8438,252.1406 L273.3125,252.1406 L273.3125,254.2969 L265.9219,254.2969 L265.9219,252.1406 L268.3906,252.1406 L268.3906,244.0625 L265.9219,244.0625 Z " fill="#000000"/><text fill="#000000" font-family="sans-serif" font-size="14" font-style="italic" lengthAdjust="spacing" textLength="160.3369" x="284" y="253.1436">RepositorioDocumento</text></g><!--class RepositorioTraducao--><g class="entity" data-entity="RepositorioTraducao" data-source-line="51" data-uid="ent0009" id="entity_RepositorioTraducao"><rect fill="#F1F1F1" height="32" rx="2.5" ry="2.5" style="stroke:#181818;stroke-width:0.5;" width="176.7305" x="32.5" y="78.2969"/><ellipse cx="47.5" cy="94.2969" fill="#B4A7E5" rx="11" ry="11" style="stroke:#181818;stroke-width:1;"/><path d="M43.4219,90.0625 L43.4219,87.9063 L50.8125,87.9063 L50.8125,90.0625 L48.3438,90.0625 L48.3438,98.1406 L50.8125,98.1406 L50.8125,100.2969 L43.4219,100.2969 L43.4219,98.1406 L45.8906,98.1406 L45.8906,90.0625 L43.4219,90.0625 Z " fill="#000000"/><text fill="#000000" font-family="sans-serif" font-size="14" font-style="italic" lengthAdjust="spacing" textLength="144.7305" x="61.5" y="99.1436">RepositorioTraducao</text></g><!--class Pipeline--><g class="entity" data-entity="Pipeline" data-source-line="55" data-uid="ent0011" id="entity_Pipeline"><rect fill="#F1F1F1" height="32" rx="2.5" ry="2.5" style="stroke:#181818;stroke-width:0.5;" width="87.0977" x="708.5" y="520.2969"/><ellipse cx="723.5" cy="536.2969" fill="#ADD1B2" rx="11" ry="11" style="stroke:#181818;stroke-width:1;"/><path d="M726.4688,541.9375 Q725.8906,542.2344 725.25,542.375 Q724.6094,542.5313 723.9063,542.5313 Q721.4063,542.5313 720.0781,540.8906 Q718.7656,539.2344 718.7656,536.1094 Q718.7656,532.9844 720.0781,531.3281 Q721.4063,529.6719 723.9063,529.6719 Q724.6094,529.6719 725.25,529.8281 Q725.9063,529.9844 726.4688,530.2813 L726.4688,533 Q725.8438,532.4219 725.25,532.1563 Q724.6563,531.875 724.0313,531.875 Q722.6875,531.875 722,532.9531 Q721.3125,534.0156 721.3125,536.1094 Q721.3125,538.2031 722,539.2813 Q722.6875,540.3438 724.0313,540.3438 Q724.6563,540.3438 725.25,540.0781 Q725.8438,539.7969 726.4688,539.2188 L726.4688,541.9375 Z " fill="#000000"/><text fill="#000000" font-family="sans-serif" font-size="14" lengthAdjust="spacing" textLength="55.0977" x="737.5" y="541.1436">Pipeline</text></g><!--class VersaoPipeline--><g class="entity" data-entity="VersaoPipeline" data-source-line="56" data-uid="ent0012" id="entity_VersaoPipeline"><rect fill="#F1F1F1" height="32" rx="2.5" ry="2.5" style="stroke:#181818;stroke-width:0.5;" width="135.4824" x="684.5" y="824.7969"/><ellipse cx="699.5" cy="840.7969" fill="#ADD1B2" rx="11" ry="11" style="stroke:#181818;stroke-width:1;"/><path d="M702.4688,846.4375 Q701.8906,846.7344 701.25,846.875 Q700.6094,847.0313 699.9063,847.0313 Q697.4063,847.0313 696.0781,845.3906 Q694.7656,843.7344 694.7656,840.6094 Q694.7656,837.4844 696.0781,835.8281 Q697.4063,834.1719 699.9063,834.1719 Q700.6094,834.1719 701.25,834.3281 Q701.9063,834.4844 702.4688,834.7813 L702.4688,837.5 Q701.8438,836.9219 701.25,836.6563 Q700.6563,836.375 700.0313,836.375 Q698.6875,836.375 698,837.4531 Q697.3125,838.5156 697.3125,840.6094 Q697.3125,842.7031 698,843.7813 Q698.6875,844.8438 700.0313,844.8438 Q700.6563,844.8438 701.25,844.5781 Q701.8438,844.2969 702.4688,843.7188 L702.4688,846.4375 Z " fill="#000000"/><text fill="#000000" font-family="sans-serif" font-size="14" lengthAdjust="spacing" textLength="103.4824" x="713.5" y="845.6436">VersaoPipeline</text></g><!--class ContextoPipeline--><g class="entity" data-entity="ContextoPipeline" data-source-line="57" data-uid="ent0013" id="entity_ContextoPipeline"><rect fill="#F1F1F1" height="32" rx="2.5" ry="2.5" style="stroke:#181818;stroke-width:0.5;" width="150.7539" x="670.5" y="232.2969"/><ellipse cx="685.5" cy="248.2969" fill="#ADD1B2" rx="11" ry="11" style="stroke:#181818;stroke-width:1;"/><path d="M688.4688,253.9375 Q687.8906,254.2344 687.25,254.375 Q686.6094,254.5313 685.9063,254.5313 Q683.4063,254.5313 682.0781,252.8906 Q680.7656,251.2344 680.7656,248.1094 Q680.7656,244.9844 682.0781,243.3281 Q683.4063,241.6719 685.9063,241.6719 Q686.6094,241.6719 687.25,241.8281 Q687.9063,241.9844 688.4688,242.2813 L688.4688,245 Q687.8438,244.4219 687.25,244.1563 Q686.6563,243.875 686.0313,243.875 Q684.6875,243.875 684,244.9531 Q683.3125,246.0156 683.3125,248.1094 Q683.3125,250.2031 684,251.2813 Q684.6875,252.3438 686.0313,252.3438 Q686.6563,252.3438 687.25,252.0781 Q687.8438,251.7969 688.4688,251.2188 L688.4688,253.9375 Z " fill="#000000"/><text fill="#000000" font-family="sans-serif" font-size="14" lengthAdjust="spacing" textLength="118.7539" x="699.5" y="253.1436">ContextoPipeline</text></g><!--class PipelineStep--><g class="entity" data-entity="PipelineStep" data-source-line="58" data-uid="ent0014" id="entity_PipelineStep"><rect fill="#F1F1F1" height="32" rx="2.5" ry="2.5" style="stroke:#181818;stroke-width:0.5;" width="118.9736" x="692.5" y="997.2969"/><ellipse cx="707.5" cy="1013.2969" fill="#ADD1B2" rx="11" ry="11" style="stroke:#181818;stroke-width:1;"/><path d="M710.4688,1018.9375 Q709.8906,1019.2344 709.25,1019.375 Q708.6094,1019.5313 707.9063,1019.5313 Q705.4063,1019.5313 704.0781,1017.8906 Q702.7656,1016.2344 702.7656,1013.1094 Q702.7656,1009.9844 704.0781,1008.3281 Q705.4063,1006.6719 707.9063,1006.6719 Q708.6094,1006.6719 709.25,1006.8281 Q709.9063,1006.9844 710.4688,1007.2813 L710.4688,1010 Q709.8438,1009.4219 709.25,1009.1563 Q708.6563,1008.875 708.0313,1008.875 Q706.6875,1008.875 706,1009.9531 Q705.3125,1011.0156 705.3125,1013.1094 Q705.3125,1015.2031 706,1016.2813 Q706.6875,1017.3438 708.0313,1017.3438 Q708.6563,1017.3438 709.25,1017.0781 Q709.8438,1016.7969 710.4688,1016.2188 L710.4688,1018.9375 Z " fill="#000000"/><text fill="#000000" font-family="sans-serif" font-size="14" lengthAdjust="spacing" textLength="86.9736" x="721.5" y="1018.1436">PipelineStep</text></g><g class="entity" data-entity="GMN24" data-source-line="73" data-uid="ent0025" id="entity_GMN24"><path d="M865.5,516.2969 L865.5,556.5625 L1092.7163,556.5625 L1092.7163,526.2969 L1082.7163,516.2969 L865.5,516.2969" fill="#FEFFDD" style="stroke:#181818;stroke-width:0.5;"/><path d="M1082.7163,516.2969 L1082.7163,526.2969 L1092.7163,526.2969 L1082.7163,516.2969" fill="#FEFFDD" style="stroke:#181818;stroke-width:1;"/><text fill="#000000" font-family="sans-serif" font-size="13" lengthAdjust="spacing" textLength="206.2163" x="871.5" y="533.3638">Centro factual do dominio atual</text><text fill="#000000" font-family="sans-serif" font-size="13" lengthAdjust="spacing" textLength="138.8296" x="871.5" y="548.4966">do legado ShowTrials</text></g><g class="entity" data-entity="GMN27" data-source-line="78" data-uid="ent0028" id="entity_GMN27"><path d="M1128,516.2969 L1128,556.5625 L1347.9482,556.5625 L1347.9482,526.2969 L1337.9482,516.2969 L1128,516.2969" fill="#FEFFDD" style="stroke:#181818;stroke-width:0.5;"/><path d="M1337.9482,516.2969 L1337.9482,526.2969 L1347.9482,526.2969 L1337.9482,516.2969" fill="#FEFFDD" style="stroke:#181818;stroke-width:1;"/><text fill="#000000" font-family="sans-serif" font-size="13" lengthAdjust="spacing" textLength="168.0288" x="1134" y="533.3638">Bloco evolutivo ainda nao</text><text fill="#000000" font-family="sans-serif" font-size="13" lengthAdjust="spacing" textLength="198.9482" x="1134" y="548.4966">implementado no codigo atual</text></g><!--link Traducao to Documento--><g class="link" data-entity-1="Traducao" data-entity-2="Documento" data-source-line="61" data-uid="lnk15" id="link_Traducao_Documento"><path codeLine="61" d="M218.07,325.5669 C263.45,361.2269 313.202,400.3101 361.072,437.9201" fill="none" id="Traducao-to-Documento" style="stroke:#181818;stroke-width:1;"/><polygon fill="#181818" points="365.79,441.6269,361.1842,432.9213,361.8583,438.5379,356.2418,439.212,365.79,441.6269" style="stroke:#181818;stroke-width:1;"/><text fill="#000000" font-family="sans-serif" font-size="13" lengthAdjust="spacing" textLength="91.9077" x="271" y="368.3638">documento_id</text></g><!--link Documento to TipoDocumento--><g class="link" data-entity-1="Documento" data-entity-2="TipoDocumento" data-source-line="62" data-uid="lnk16" id="link_Documento_TipoDocumento"><path codeLine="62" d="M485,670.4169 C485,696.2569 485,716.8069 485,741.0069" fill="none" id="Documento-to-TipoDocumento" style="stroke:#181818;stroke-width:1;stroke-dasharray:7,7;"/><polygon fill="#181818" points="485,747.0069,489,738.0069,485,742.0069,481,738.0069,485,747.0069" style="stroke:#181818;stroke-width:1;"/><text fill="#000000" font-family="sans-serif" font-size="13" lengthAdjust="spacing" textLength="59.1855" x="486" y="713.3638">classifica</text></g><!--link AnaliseTexto to Documento--><g class="link" data-entity-1="AnaliseTexto" data-entity-2="Documento" data-source-line="63" data-uid="lnk17" id="link_AnaliseTexto_Documento"><path codeLine="63" d="M539.88,264.6769 C534.52,291.1269 524.2431,341.8067 513.1631,396.4167" fill="none" id="AnaliseTexto-to-Documento" style="stroke:#181818;stroke-width:1;"/><polygon fill="#181818" points="511.97,402.2969,517.6797,394.272,512.9642,397.3967,509.8394,392.6812,511.97,402.2969" style="stroke:#181818;stroke-width:1;"/><text fill="#000000" font-family="sans-serif" font-size="13" lengthAdjust="spacing" textLength="91.9077" x="521" y="368.3638">documento_id</text></g><!--link RepositorioDocumento to Documento--><g class="link" data-entity-1="RepositorioDocumento" data-entity-2="Documento" data-source-line="64" data-uid="lnk18" id="link_RepositorioDocumento_Documento"><path codeLine="64" d="M358.2,264.6769 C370.6,291.1269 394.5549,342.2534 420.1349,396.8634" fill="none" id="RepositorioDocumento-to-Documento" style="stroke:#181818;stroke-width:1;stroke-dasharray:7,7;"/><polygon fill="#181818" points="422.68,402.2969,422.4847,392.45,420.5591,397.769,415.24,395.8434,422.68,402.2969" style="stroke:#181818;stroke-width:1;"/></g><!--link RepositorioTraducao to Traducao--><g class="link" data-entity-1="RepositorioTraducao" data-entity-2="Traducao" data-source-line="65" data-uid="lnk19" id="link_RepositorioTraducao_Traducao"><path codeLine="65" d="M121,110.4269 C121,124.9169 121,141.9369 121,164.9869" fill="none" id="RepositorioTraducao-to-Traducao" style="stroke:#181818;stroke-width:1;stroke-dasharray:7,7;"/><polygon fill="#181818" points="121,170.9869,125,161.9869,121,165.9869,117,161.9869,121,170.9869" style="stroke:#181818;stroke-width:1;"/></g><!--link Pipeline to VersaoPipeline--><g class="link" data-entity-1="Pipeline" data-entity-2="VersaoPipeline" data-source-line="67" data-uid="lnk20" id="link_Pipeline_VersaoPipeline"><path codeLine="67" d="M752,552.2969 C752,603.7969 752,773.0669 752,824.7069" fill="none" id="Pipeline-VersaoPipeline" style="stroke:#181818;stroke-width:1;"/><text fill="#000000" font-family="sans-serif" font-size="13" lengthAdjust="spacing" textLength="8.271" x="742.6548" y="572.4647">1</text><text fill="#000000" font-family="sans-serif" font-size="13" lengthAdjust="spacing" textLength="6.5" x="744.9718" y="813.6875">*</text></g><!--link VersaoPipeline to PipelineStep--><g class="link" data-entity-1="VersaoPipeline" data-entity-2="PipelineStep" data-source-line="68" data-uid="lnk21" id="link_VersaoPipeline_PipelineStep"><path codeLine="68" d="M752,856.9269 C752,889.1969 752,964.4969 752,996.9569" fill="none" id="VersaoPipeline-PipelineStep" style="stroke:#181818;stroke-width:1;"/><text fill="#000000" font-family="sans-serif" font-size="13" lengthAdjust="spacing" textLength="8.271" x="742.64" y="876.8432">1</text><text fill="#000000" font-family="sans-serif" font-size="13" lengthAdjust="spacing" textLength="6.5" x="745.0934" y="986.1488">*</text></g><!--link ContextoPipeline to Pipeline--><g class="link" data-entity-1="ContextoPipeline" data-entity-2="Pipeline" data-source-line="69" data-uid="lnk22" id="link_ContextoPipeline_Pipeline"><path codeLine="69" d="M746.32,264.6769 C747.37,314.4469 750.5249,464.8082 751.5549,514.1882" fill="none" id="ContextoPipeline-to-Pipeline" style="stroke:#181818;stroke-width:1;stroke-dasharray:7,7;"/><polygon fill="#181818" points="751.68,520.1869,755.4914,511.1054,751.5757,515.188,747.4932,511.2722,751.68,520.1869" style="stroke:#181818;stroke-width:1;"/></g><!--link ContextoPipeline to Documento--><g class="link" data-entity-1="ContextoPipeline" data-entity-2="Documento" data-source-line="70" data-uid="lnk23" id="link_ContextoPipeline_Documento"><path codeLine="70" d="M731.97,264.6769 C707.46,291.5369 658.6641,344.9946 608.1341,400.3746" fill="none" id="ContextoPipeline-to-Documento" style="stroke:#181818;stroke-width:1;stroke-dasharray:7,7;"/><polygon fill="#181818" points="604.09,404.8069,613.111,400.8545,607.4601,401.1133,607.2013,395.4624,604.09,404.8069" style="stroke:#181818;stroke-width:1;"/></g><!--link Documento to GMN24--><g class="link" data-entity-1="Documento" data-entity-2="GMN24" data-source-line="73" data-uid="lnk26" id="link_Documento_GMN24"><path d="M604.1,403.2969 C624.89,387.1969 647.58,373.1669 671.5,363.7969 C733.16,339.6469 759.87,337.1669 820.5,363.7969 C892.55,395.4469 946.24,477.8069 968.16,516.1269" fill="none" id="Documento-GMN24" style="stroke:#181818;stroke-width:1;stroke-dasharray:7,7;"/></g><!--link Pipeline to GMN27--><g class="link" data-entity-1="Pipeline" data-entity-2="GMN27" data-source-line="78" data-uid="lnk29" id="link_Pipeline_GMN27"><path d="M756.86,520.0269 C768.61,483.9669 802.39,397.8169 865.5,363.7969 C954.31,315.9269 1001.01,321.2769 1092.5,363.7969 C1161.25,395.7469 1209.2,477.9469 1228.51,516.1869" fill="none" id="Pipeline-GMN27" style="stroke:#181818;stroke-width:1;stroke-dasharray:7,7;"/></g><!--SRC=[XLJ1Rjim3BtxAuWSDxJOhZaKy19l2z0bXUFkCXI1AZC9KLaq9BdjElJVHpkrexhf1WI1-KZnKOyK0mM3C2UrSwfIK2BCZF8UVVivvueiSPBiIIoiwl0RAgnkqVd4tv6jbHm2tHv8Gt1qsmHSQBPhUaBu58NulIhvWUmEjifuJ99QwJkrGvYyK40Q6cKcy2U1GpxXras5Dd270NoaSWghEX1RPNwH3JS7M4kCuoduu0v0eD2O66YSYTtu669lgOBQQ3OOr1J4m40LHYvsj2EXZCZbx4tFLVExZas9NZlIwdH8ZTwpsjIEhARw7GA75GQv8Pxq2a6Gse9oT9e3xJsRUohPJ-6IV8Whn6gZB3wshbjc8-XpCgXVE5KsKlb_n2_x9ctQ0C7xQE9AZKNVX3RfarGpbZ-yi8qRK769vlJDTEFRDcuDgz2NZhQfe13bnxEpM1PPdg- -fSKgNwmwA9sbUIP_lNMz7envDhjCyy6Km2BjllBiCiempwvMYn_PiZYOb-drl7UiPwlbzsosw818rILNc3VIzW59vLRaiMZrQUD4GdHRfH5ohDbJaF4xNkUzWBvRoNFqifQDDiYGoGGqWUuPlZQXSHo_iIkgqP350VWfBrln6tZ6jklW6qSFh0FMBVamDcTd5z4Bbhv6Wv8S7UVd5wE6JG-PQIll9edL-NVAKsfrsO_QdT3hmD-Bb_ItWSddYT31vCDahCXhCmvy9SLOi8veI7BIUomqiHmGPEti0_0sSiowLIShLBVBKWIGts5xgXP8132uaqqBwpq_58varoPeIsWJZjCErNmnh1bm61D5jbHWHH2gQeCjTPlICcWkQTUJzNd_0W00]--></g></svg>
